<svg width="24" height="20" viewBox="0 0 24 25" fill="red" xmlns="http://www.w3.org/2000/svg">
<path fill-rule="evenodd" clip-rule="evenodd" d="M12.0001 1.84619C11.8881 1.84619 11.6124 1.87696 11.466 2.16989L9.21852 6.66351C8.86283 7.37367 8.17728 7.86722 7.38465 7.98045L2.35317 8.70539C2.02086 8.75339 1.90762 8.99955 1.87316 9.10293C1.84239 9.20263 1.79316 9.45617 2.02209 9.67525L5.66031 13.1707C6.24001 13.7282 6.5034 14.532 6.36555 15.3184L5.50892 20.2539C5.456 20.5628 5.64923 20.7425 5.73539 20.8041C5.82646 20.873 6.07016 21.0096 6.3717 20.8521L10.8702 18.5197C11.5792 18.1542 12.4235 18.1542 13.13 18.5197L17.6273 20.8508C17.9301 21.0072 18.1738 20.8705 18.2661 20.8041C18.3522 20.7425 18.5455 20.5628 18.4925 20.2539L17.6334 15.3184C17.4956 14.532 17.759 13.7282 18.3387 13.1707L21.9769 9.67525C22.2071 9.45617 22.1578 9.2014 22.1258 9.10293C22.0926 8.99955 21.9794 8.75339 21.6471 8.70539L16.6156 7.98045C15.8242 7.86722 15.1386 7.37367 14.7829 6.66227L12.533 2.16989C12.3878 1.87696 12.1121 1.84619 12.0001 1.84619ZM6.08862 22.7696C5.58031 22.7696 5.07568 22.6096 4.64367 22.2946C3.89781 21.7481 3.53227 20.8459 3.69104 19.9376L4.54767 15.0021C4.57967 14.8187 4.5169 14.6329 4.38151 14.5024L0.743295 11.007C0.0737443 10.3657 -0.16626 9.41802 0.116822 8.538C0.402366 7.64814 1.15807 7.01182 2.08978 6.87889L7.12126 6.15396C7.31572 6.12688 7.48311 6.00749 7.5668 5.83764L9.81546 1.34279C10.2302 0.514471 11.0672 0 12.0001 0C12.9331 0 13.77 0.514471 14.1848 1.34279L16.4347 5.83641C16.5196 6.00749 16.6857 6.12688 16.879 6.15396L21.9104 6.87889C22.8422 7.01182 23.5979 7.64814 23.8834 8.538C24.1665 9.41802 23.9253 10.3657 23.2557 11.007L19.6175 14.5024C19.4821 14.6329 19.4206 14.8187 19.4526 15.0009L20.3104 19.9376C20.468 20.8471 20.1024 21.7493 19.3553 22.2946C18.5984 22.8496 17.6125 22.9247 16.7768 22.489L12.2807 20.1591C12.1047 20.0681 11.8943 20.0681 11.7183 20.1591L7.22218 22.4903C6.86279 22.6773 6.47509 22.7696 6.08862 22.7696Z" fill="#3D3D3D"/>
</svg>
