<svg width="23" height="24" viewBox="0 0 23 24" fill="none" xmlns="http://www.w3.org/2000/svg">
<path fill-rule="evenodd" clip-rule="evenodd" d="M12.8599 15.5652C14.1643 15.5652 15.2259 16.6193 15.2259 17.9149V21.2473C15.2259 21.5257 15.4491 21.7489 15.7351 21.7554H17.7999C19.4271 21.7554 20.7498 20.4489 20.7498 18.8434V9.39236C20.7423 8.83986 20.479 8.31986 20.0273 7.97428L12.8848 2.27811C11.9261 1.5187 10.5849 1.5187 9.62292 2.28028L2.52925 7.97211C2.06017 8.32853 1.79692 8.84853 1.7915 9.41078V18.8434C1.7915 20.4489 3.11425 21.7554 4.74142 21.7554H6.82575C7.11934 21.7554 7.35767 21.5224 7.35767 21.2365C7.35767 21.1736 7.36525 21.1108 7.37825 21.0512V17.9149C7.37825 16.6269 8.43342 15.5739 9.728 15.5652H12.8599ZM17.7999 23.3804H15.7156C14.5218 23.3522 13.6009 22.4151 13.6009 21.2473V17.9149C13.6009 17.5152 13.2683 17.1902 12.8599 17.1902H9.73342C9.33367 17.1924 9.00325 17.5184 9.00325 17.9149V21.2365C9.00325 21.3177 8.99242 21.3957 8.96967 21.4694C8.85267 22.5419 7.93617 23.3804 6.82575 23.3804H4.74142C2.21834 23.3804 0.166504 21.3448 0.166504 18.8434V9.4032C0.177337 8.32636 0.673504 7.34053 1.53042 6.69161L8.61 1.00953C10.1689 -0.225471 12.341 -0.225471 13.8967 1.00736L21.0272 6.69486C21.8646 7.33295 22.3608 8.31661 22.3748 9.38045V18.8434C22.3748 21.3448 20.323 23.3804 17.7999 23.3804Z" fill="#3D3D3D"/>
</svg>
