<svg width="116" height="113" viewBox="0 0 116 113" fill="none" xmlns="http://www.w3.org/2000/svg">
<path d="M47.3036 22.4479L44.4619 10.3592C44.4619 9.82485 44.0873 9.07322 43.6178 8.86096C43.3838 8.75163 43.1193 8.72606 42.8687 8.78855L36.099 10.5116C35.8914 10.5594 35.7026 10.6674 35.556 10.8219C35.4095 10.9765 35.3117 11.1708 35.2749 11.3806L34.9078 13.2085L26.053 15.4559C24.8494 15.6557 24.35 16.7694 24.6546 17.6034L27.354 27.8017C27.7835 28.9779 29.072 29.6196 30.1009 29.3574L45.7529 25.377C46.8242 25.1073 47.4934 23.9287 47.3036 22.4479Z" fill="#CCDCF2"/>
<path d="M47.491 22.198L44.9938 12.0846C44.6992 11.3105 44.0224 10.8535 43.4007 11.0133L25.661 15.5306C24.9119 15.7229 24.5448 16.7218 24.8794 17.6682L27.1269 27.0374C27.7187 29.3672 29.1246 29.7468 30.1958 29.4771L45.7455 25.5192C47.3436 25.1121 48.0828 24.1957 47.491 22.198Z" fill="#B0C6EE"/>
<path d="M35.6872 23.2517C35.9751 23.2514 36.2613 23.2076 36.5362 23.1219C37.0842 22.9536 37.5701 22.6266 37.9323 22.1822C38.2945 21.7378 38.5168 21.196 38.5712 20.6253C38.6255 20.0546 38.5095 19.4806 38.2376 18.9759C37.9658 18.4711 37.5505 18.0583 37.0441 17.7895C36.5376 17.5208 35.9629 17.4083 35.3926 17.4661C34.8222 17.5239 34.2818 17.7496 33.8396 18.1145C33.3975 18.4794 33.0735 18.9672 32.9085 19.5162C32.7435 20.0653 32.7451 20.6509 32.9129 21.1991C33.0953 21.7927 33.4632 22.3123 33.9624 22.6817C34.4617 23.0511 35.0661 23.2509 35.6872 23.2517ZM35.6872 17.6981C36.1782 17.6979 36.6597 17.834 37.0779 18.0913C37.4961 18.3486 37.8347 18.717 38.0559 19.1554C38.2771 19.5938 38.3723 20.085 38.3307 20.5743C38.2892 21.0635 38.1127 21.5317 37.8208 21.9265C37.5289 22.3214 37.1331 22.6274 36.6775 22.8106C36.2219 22.9938 35.7244 23.0469 35.2404 22.9639C34.7564 22.881 34.305 22.6653 33.9363 22.3409C33.5677 22.0165 33.2964 21.5962 33.1526 21.1267C33.0322 20.7307 33.0061 20.3121 33.0764 19.9043C33.1468 19.4965 33.3116 19.1108 33.5577 18.7781C33.8037 18.4454 34.1243 18.1749 34.4936 17.9882C34.8629 17.8015 35.2709 17.7039 35.6847 17.7031L35.6872 17.6981Z" fill="#CCDCF2"/>
<path d="M36.3387 20.148L35.9717 18.9544L35.1201 19.8684L34.2686 20.7848L35.4872 21.0645L36.7058 21.3442L36.3387 20.148Z" fill="#CCDCF2"/>
<path d="M88.816 85.5403L102.166 92.7545C102.608 92.9939 103.128 93.0476 103.61 92.9039C104.093 92.7601 104.498 92.4306 104.738 91.9879L114.726 73.5091C114.966 73.066 115.02 72.5459 114.876 72.0632C114.732 71.5804 114.403 71.1745 113.96 70.9346L105.487 66.3623L95.2836 69.5736L88.0419 82.9657C87.9236 83.1856 87.8498 83.4266 87.8246 83.675C87.7995 83.9234 87.8236 84.1743 87.8955 84.4134C87.9674 84.6525 88.0857 84.8751 88.2436 85.0684C88.4016 85.2618 88.5961 85.4221 88.816 85.5403Z" fill="#B0C6EE"/>
<path d="M96.9716 78.4707C96.9716 78.4707 96.8617 78.4058 96.6819 78.2535C96.4239 78.0212 96.2384 77.7195 96.1475 77.3845C96.0454 77.0075 96.0735 76.6072 96.2274 76.2483C96.2873 76.1159 96.3647 75.9811 96.4422 75.8387L97.4959 73.9284L98.1052 72.8122L98.4274 72.2179C98.5279 72.0125 98.651 71.8191 98.7945 71.6411C99.11 71.2776 99.55 71.0452 100.028 70.9893C100.279 70.9565 100.533 70.9743 100.777 71.0417C101.024 71.1185 101.261 71.2259 101.481 71.3614L107.599 74.6851C107.843 74.8493 108.045 75.0689 108.187 75.3258C108.33 75.5827 108.41 75.8697 108.421 76.1634C108.435 76.4512 108.38 76.7383 108.259 76.9999C108.136 77.2496 107.984 77.5168 107.849 77.774L106.236 80.7331C106.109 80.9628 105.986 81.2151 105.854 81.4198C105.712 81.6211 105.53 81.791 105.319 81.9193C105.116 82.0414 104.89 82.1214 104.655 82.1544C104.42 82.1874 104.18 82.1729 103.951 82.1115C103.733 82.0418 103.523 81.9471 103.327 81.8294L102.74 81.5147L101.619 80.9129L98.2301 79.1125L97.2987 78.633L97.049 78.5107C97.0221 78.4958 96.9936 78.4841 96.9641 78.4757C96.9879 78.4952 97.0139 78.512 97.0415 78.5257L97.2762 78.663C97.4959 78.7829 97.8006 78.9552 98.1877 79.1624L101.551 81.0078L102.675 81.6296L103.269 81.9542C103.474 82.0785 103.693 82.1782 103.921 82.2514C104.299 82.3547 104.7 82.3382 105.069 82.204C105.438 82.0698 105.755 81.8246 105.979 81.5022C106.131 81.27 106.228 81.0403 106.371 80.803L107.984 77.8489C108.121 77.5992 108.266 77.3495 108.401 77.0648C108.532 76.7813 108.593 76.4704 108.578 76.1584C108.566 75.8395 108.48 75.5278 108.325 75.2488C108.17 74.9698 107.951 74.7313 107.687 74.5527C105.507 73.3516 103.442 72.2529 101.549 71.2315C101.314 71.0896 101.063 70.9788 100.8 70.9019C100.542 70.8324 100.273 70.8146 100.008 70.8495C99.4969 70.9119 99.0276 71.1631 98.6921 71.5537C98.5421 71.7399 98.4139 71.9426 98.31 72.158C98.2026 72.3602 98.0953 72.5575 97.9904 72.7523C97.784 73.1418 97.5842 73.5156 97.3911 73.8735C97.009 74.5877 96.6644 75.2344 96.3623 75.8038C96.2848 75.9461 96.2124 76.081 96.1475 76.2233C96.0922 76.3596 96.0536 76.5022 96.0326 76.6478C95.9879 76.9506 96.0221 77.2597 96.1319 77.5454C96.2417 77.8311 96.4234 78.0836 96.6594 78.2784C96.7542 78.3564 96.8592 78.4211 96.9716 78.4707Z" fill="#FAFAFA"/>
<path d="M95.9453 76.7855C95.9982 76.7775 96.0495 76.7615 96.0976 76.738L96.5171 76.5732C96.8992 76.4109 97.4186 76.1962 98.0479 75.934L99.0992 75.4845L99.686 75.2348L99.9931 75.1049C100.088 75.0679 100.191 75.0592 100.29 75.0799C100.392 75.1019 100.486 75.153 100.559 75.227C100.633 75.301 100.683 75.3948 100.705 75.497C100.745 75.7342 100.785 75.9764 100.827 76.2236C100.912 76.7231 100.997 77.2225 101.077 77.7619C101.117 77.9991 101.157 78.2313 101.194 78.4511L101.209 78.5385L101.294 78.5135L102.685 78.1339L103.015 78.039C103.112 78.0023 103.215 77.9845 103.319 77.9866C103.416 77.9912 103.509 78.0201 103.591 78.0708C103.674 78.1215 103.741 78.1922 103.789 78.2763C103.833 78.3651 103.866 78.459 103.886 78.556L103.969 78.8481C104.024 79.0404 104.076 79.2252 104.128 79.405C104.228 79.7646 104.326 80.0967 104.413 80.4038L104.833 81.8372C104.88 81.9895 104.92 82.1169 104.955 82.2217C104.966 82.2679 104.982 82.3124 105.005 82.3541C105.004 82.3066 104.997 82.2595 104.982 82.2142C104.957 82.1069 104.927 81.977 104.89 81.8197C104.795 81.4576 104.67 80.9707 104.515 80.3739C104.436 80.0667 104.346 79.7321 104.251 79.375C104.201 79.1919 104.151 79.0046 104.101 78.8132C104.073 78.7183 104.048 78.6184 104.021 78.521C103.999 78.4126 103.963 78.3077 103.914 78.2088C103.855 78.1031 103.771 78.0138 103.669 77.9492C103.567 77.8846 103.45 77.8468 103.329 77.8393C103.209 77.8358 103.088 77.8553 102.975 77.8967L102.643 77.9891L101.257 78.3737L101.359 78.4361C101.322 78.2163 101.282 77.9841 101.242 77.7469L100.992 76.2111C100.949 75.9614 100.906 75.7167 100.865 75.477C100.837 75.3459 100.771 75.2258 100.676 75.1317C100.58 75.0376 100.459 74.9735 100.328 74.9476C100.201 74.9227 100.07 74.9348 99.9507 74.9826L99.6435 75.1174L99.0592 75.3671L97.9954 75.8291L96.4972 76.5158L96.0901 76.7081C96.0395 76.7292 95.991 76.7552 95.9453 76.7855Z" fill="#FAFAFA"/>
<path d="M103.102 75.9963C103.102 75.9838 103.032 75.9389 102.925 75.8315C102.776 75.6781 102.681 75.4812 102.652 75.2696C102.632 75.1172 102.65 74.9621 102.705 74.8184C102.759 74.6746 102.849 74.5465 102.965 74.4456C103.106 74.3274 103.279 74.2544 103.462 74.2361C103.645 74.2177 103.829 74.2549 103.991 74.3427C104.152 74.4305 104.284 74.5649 104.368 74.7285C104.452 74.892 104.485 75.0771 104.463 75.2596C104.441 75.4125 104.383 75.5576 104.292 75.6822C104.201 75.8068 104.08 75.907 103.941 75.9738C103.749 76.0654 103.533 76.0934 103.324 76.0537C103.247 76.0304 103.169 76.0112 103.089 75.9963C103.151 76.0541 103.227 76.0946 103.309 76.1137C103.533 76.1832 103.774 76.1699 103.988 76.0762C104.151 76.0072 104.292 75.8981 104.401 75.7592C104.509 75.6203 104.58 75.4561 104.608 75.2821C104.64 75.0674 104.605 74.8481 104.508 74.6539C104.411 74.4597 104.256 74.3001 104.065 74.1965C103.875 74.0929 103.657 74.0505 103.441 74.075C103.225 74.0994 103.022 74.1896 102.86 74.3332C102.729 74.4515 102.63 74.6011 102.573 74.7679C102.516 74.9348 102.502 75.1134 102.533 75.2871C102.574 75.5222 102.698 75.7348 102.882 75.8864C102.945 75.9408 103.021 75.9785 103.102 75.9963Z" fill="#FAFAFA"/>
<path d="M107.417 87.0392L90.7208 78.0156L87.8985 83.2374C87.6983 83.6079 87.6534 84.0429 87.7738 84.4465C87.8942 84.8502 88.17 85.1894 88.5406 85.3897L102.442 92.903C102.813 93.1033 103.247 93.1482 103.651 93.0278C104.055 92.9073 104.394 92.6315 104.594 92.261L107.417 87.0392Z" fill="#CCDCF2"/>
<path d="M105.487 66.3623L102.675 71.5613C102.565 71.7655 102.416 71.946 102.236 72.0925C102.056 72.2389 101.849 72.3485 101.627 72.4148C101.405 72.4812 101.172 72.503 100.941 72.4791C100.71 72.4552 100.487 72.386 100.283 72.2755L95.2885 69.5736L105.487 66.3623Z" fill="#B0C6EE"/>
<path d="M102.365 71.9811C102.365 71.9811 101.749 73.2796 100.091 72.9175C100.028 72.9025 99.9657 72.885 99.9058 72.865C99.1891 72.6303 94.4795 71.0696 94.532 70.9722L95.2811 69.5738L100.275 72.2782C100.275 72.2782 101.559 72.91 102.365 71.9811Z" fill="#CCDCF2"/>
<path d="M98.9019 86.4066L98.3525 86.1095L97.7832 87.1633C97.9727 87.5459 98.2775 87.8595 98.6547 88.0597C99.4712 88.5017 100.375 88.267 100.797 87.4829C101.219 86.6988 100.922 85.8173 100.096 85.3703C99.8978 85.2513 99.6763 85.1771 99.4468 85.1529C99.2173 85.1288 98.9852 85.1552 98.767 85.2305L98.9593 85.7948C99.0944 85.7462 99.2384 85.7273 99.3815 85.7394C99.5245 85.7514 99.6633 85.7942 99.7884 85.8648C99.8977 85.9231 99.9945 86.0025 100.073 86.0983C100.152 86.194 100.211 86.3044 100.247 86.423C100.283 86.5416 100.295 86.6661 100.283 86.7895C100.271 86.9129 100.235 87.0327 100.177 87.1421C100.118 87.2514 100.039 87.3482 99.9432 87.4269C99.8474 87.5056 99.7371 87.5647 99.6185 87.6007C99.4998 87.6368 99.3753 87.6491 99.2519 87.6371C99.1285 87.625 99.0088 87.5887 98.8994 87.5304C98.7349 87.4464 98.5954 87.3206 98.4949 87.1658L98.9019 86.4066Z" fill="#FAFAFA"/>
<path d="M98.4775 84.5538L97.8782 84.2291L96.4748 86.8236L97.0742 87.1483L98.4775 84.5538Z" fill="#FAFAFA"/>
<path d="M96.4024 84.0546L96.0303 84.7388L94.8292 84.0896L94.5795 84.5715L95.7806 85.2233L95.2812 86.1672L95.883 86.4918L97.2864 83.8973L95.3236 82.836L95.0739 83.3179L96.4024 84.0546Z" fill="#FAFAFA"/>
<path d="M24.6323 98.5228L34.0689 93.9631C34.3811 93.8117 34.6206 93.5426 34.7348 93.215C34.849 92.8873 34.8287 92.5278 34.6782 92.2151L28.3705 79.1601C28.2191 78.8479 27.9501 78.6084 27.6224 78.4942C27.2947 78.38 26.9352 78.4003 26.6225 78.5508L20.6294 81.44L18.3045 88.4494L22.8818 97.911C22.9565 98.0662 23.0611 98.205 23.1895 98.3198C23.318 98.4345 23.4677 98.5227 23.6303 98.5795C23.7929 98.6364 23.965 98.6606 24.1369 98.6509C24.3088 98.6411 24.4772 98.5976 24.6323 98.5228Z" fill="#B0C6EE"/>
<path d="M23.9704 91.0991C23.9704 91.0991 23.8905 91.134 23.7332 91.174C23.5004 91.2252 23.2578 91.2088 23.034 91.1265C22.8742 91.0658 22.7294 90.9712 22.6095 90.8493C22.5411 90.7807 22.4807 90.7045 22.4297 90.6221C22.3798 90.5347 22.3348 90.4373 22.2874 90.3349C22.0976 89.9329 21.8778 89.4759 21.6381 88.974C21.5182 88.7243 21.3884 88.4571 21.261 88.1799L21.0588 87.7604C20.9835 87.6204 20.9248 87.472 20.884 87.3184C20.8093 86.9958 20.8565 86.657 21.0163 86.367C21.0955 86.2169 21.2032 86.0837 21.3335 85.9749C21.4767 85.8678 21.6327 85.7789 21.7979 85.7102L26.1404 83.6276C26.3312 83.5581 26.5357 83.5344 26.7373 83.5582C26.939 83.5821 27.1323 83.6529 27.3016 83.765C27.4679 83.8741 27.6057 84.0213 27.7036 84.1945C27.796 84.3668 27.8809 84.5566 27.9708 84.7364C28.3229 85.4605 28.66 86.1597 28.9822 86.824C29.0596 86.9913 29.152 87.1561 29.2144 87.3234C29.2697 87.4837 29.2918 87.6537 29.2793 87.8228C29.2654 87.9863 29.2186 88.1453 29.1418 88.2903C29.065 88.4354 28.9597 88.5634 28.8323 88.6668C28.7059 88.7615 28.5684 88.8403 28.4228 88.9016L28.0033 89.1063L27.2142 89.4909L24.8369 90.6596L24.1927 90.9817L24.0254 91.0691L23.9704 91.1015C23.9915 91.0975 24.0118 91.0899 24.0303 91.0791L24.2027 91.0017L24.8544 90.6995L27.2492 89.5608L28.0407 89.1838L28.4628 88.9815C28.6149 88.9163 28.7583 88.8324 28.8898 88.7318C29.0281 88.6217 29.1424 88.4845 29.2257 88.3286C29.309 88.1727 29.3595 88.0015 29.3742 87.8253C29.3917 87.6403 29.3687 87.4537 29.3068 87.2784C29.2394 87.1011 29.152 86.9488 29.0746 86.779C28.7549 86.1123 28.4178 85.4131 28.0757 84.6889C27.9858 84.5066 27.9059 84.3268 27.806 84.1395C27.6999 83.9511 27.55 83.7909 27.369 83.6726C27.187 83.552 26.9793 83.4757 26.7625 83.4497C26.5457 83.4237 26.3259 83.4487 26.1205 83.5228C24.5672 84.2594 23.1239 84.9736 21.7804 85.6178C21.609 85.691 21.4471 85.785 21.2985 85.8975C21.0881 86.0669 20.9297 86.2922 20.8414 86.5474C20.7531 86.8027 20.7384 87.0777 20.7991 87.3409C20.8432 87.4997 20.9052 87.653 20.9839 87.7978L21.1886 88.2174C21.321 88.492 21.4508 88.7542 21.5732 89.0065L22.2324 90.3699C22.2824 90.4698 22.3273 90.5672 22.3822 90.6596C22.4352 90.7456 22.499 90.8245 22.572 90.8943C22.6987 91.0192 22.8513 91.1147 23.019 91.174C23.2506 91.2543 23.5007 91.2648 23.7382 91.2039C23.8202 91.1803 23.8984 91.145 23.9704 91.0991Z" fill="#FAFAFA"/>
<path d="M22.6145 90.9941C22.6292 90.9605 22.6401 90.9253 22.6469 90.8892C22.6694 90.8093 22.6944 90.7094 22.7244 90.5871C22.7893 90.3074 22.8767 89.9303 22.9741 89.4733C23.029 89.2236 23.0864 88.9739 23.1489 88.7017C23.1813 88.5619 23.2138 88.4196 23.2463 88.2722C23.2637 88.1998 23.2787 88.1249 23.2962 88.05C23.3093 87.9987 23.3333 87.9508 23.3666 87.9096C23.3999 87.8684 23.4416 87.8348 23.4889 87.8112C23.5363 87.7875 23.5882 87.7742 23.6411 87.7724C23.694 87.7705 23.7467 87.78 23.7956 87.8003L24.2526 88.025L25.219 88.502L25.651 88.7142L25.7059 88.7417L25.7259 88.6842L26.078 87.7628L26.1579 87.5381C26.177 87.469 26.2083 87.4038 26.2503 87.3458C26.293 87.2944 26.3477 87.2543 26.4095 87.229C26.4713 87.2038 26.5384 87.1941 26.6049 87.201C26.672 87.2118 26.7374 87.2311 26.7997 87.2584L26.9969 87.3308L27.3715 87.4681L28.0457 87.7179L29.0196 88.0625L29.2818 88.1499C29.3123 88.162 29.3442 88.1703 29.3767 88.1748C29.3767 88.1748 29.3492 88.1549 29.2893 88.1299L29.0396 88.025L28.0807 87.6479L27.4115 87.3982L27.0369 87.2559L26.8396 87.181C26.7702 87.1497 26.6973 87.127 26.6224 87.1136C26.5392 87.1038 26.4548 87.1152 26.3771 87.1466C26.2995 87.178 26.2309 87.2285 26.1779 87.2933C26.1285 87.3604 26.0913 87.4356 26.068 87.5156L25.9856 87.7378C25.8732 88.0375 25.7584 88.3496 25.641 88.6693L25.7159 88.6368L25.2839 88.4245L24.3175 87.9501L23.8556 87.7254C23.7711 87.6879 23.6775 87.6763 23.5864 87.6918C23.4954 87.7074 23.4109 87.7494 23.3436 87.8128C23.2776 87.8723 23.2314 87.9508 23.2113 88.0375C23.1938 88.1124 23.1763 88.1898 23.1614 88.2647C23.1289 88.4121 23.0989 88.5544 23.069 88.6942C23.0115 88.9714 22.9591 89.2311 22.9091 89.4684C22.8143 89.9303 22.7393 90.3099 22.6819 90.5921L22.627 90.8967C22.618 90.9284 22.6138 90.9612 22.6145 90.9941Z" fill="#FAFAFA"/>
<path d="M25.0617 86.6693C25.0617 86.6693 25.0018 86.6843 24.8994 86.6992C24.7538 86.7225 24.6046 86.6971 24.4749 86.6268C24.3827 86.5769 24.3039 86.5054 24.2452 86.4184C24.1865 86.3315 24.1497 86.2316 24.1378 86.1274C24.1269 86.0357 24.1362 85.9427 24.165 85.8549C24.1938 85.7671 24.2415 85.6867 24.3046 85.6193C24.3677 85.5518 24.4448 85.499 24.5305 85.4644C24.6162 85.4299 24.7083 85.4145 24.8006 85.4193C24.8928 85.4241 24.9829 85.449 25.0646 85.4922C25.1462 85.5355 25.2174 85.596 25.2732 85.6696C25.329 85.7433 25.368 85.8282 25.3876 85.9185C25.4071 86.0088 25.4067 86.1022 25.3864 86.1923C25.3606 86.3368 25.2888 86.4691 25.1816 86.5694C25.1042 86.6418 25.0492 86.6693 25.0542 86.6793C25.0592 86.6893 25.1167 86.6793 25.2091 86.6019C25.3371 86.5047 25.4258 86.3646 25.4588 86.2073C25.486 86.0888 25.4824 85.9653 25.4483 85.8486C25.4142 85.7318 25.3507 85.6258 25.264 85.5406C25.1576 85.43 25.0191 85.3558 24.8681 85.3286C24.7171 85.3013 24.5613 85.3224 24.423 85.3888C24.2847 85.4552 24.1708 85.5635 24.0977 85.6984C24.0245 85.8332 23.9957 85.9877 24.0154 86.1399C24.0291 86.2606 24.0731 86.376 24.1434 86.4751C24.2138 86.5742 24.308 86.6539 24.4175 86.7067C24.5629 86.7767 24.7284 86.7926 24.8844 86.7517C24.9502 86.7416 25.0117 86.713 25.0617 86.6693Z" fill="#FAFAFA"/>
<path d="M32.9927 88.7172L21.1998 94.4155L22.7697 97.6645C22.953 98.0437 23.2794 98.3347 23.6771 98.4733C24.0749 98.6118 24.5114 98.5868 24.8907 98.4035L33.8236 94.0871C34.2028 93.9038 34.4937 93.5774 34.6323 93.1797C34.7709 92.7819 34.7458 92.3454 34.5626 91.9661L32.9927 88.7172Z" fill="#CCDCF2"/>
<path d="M20.6344 81.4376L22.4099 85.1259C22.5501 85.417 22.5691 85.7519 22.4629 86.057C22.3566 86.3622 22.1337 86.6128 21.8431 86.754L18.3096 88.4595L20.6344 81.4376Z" fill="#B0C6EE"/>
<path d="M22.5172 85.4579C22.6492 85.7372 22.6821 86.0532 22.6103 86.3538C22.5386 86.6543 22.3666 86.9214 22.1226 87.111L22.0178 87.1934C21.5957 87.498 18.8214 89.5057 18.7865 89.4408L18.3095 88.442L21.833 86.7414C21.833 86.7414 22.712 86.2844 22.5172 85.4579Z" fill="#CCDCF2"/>
<path d="M29.1946 93.2264L28.805 93.4137L29.1646 94.1628C29.4562 94.2113 29.7556 94.1677 30.0212 94.038C30.1555 93.9835 30.2772 93.902 30.3786 93.7985C30.4801 93.695 30.5592 93.5717 30.611 93.4363C30.6628 93.301 30.6861 93.1564 30.6796 93.0116C30.6731 92.8668 30.6368 92.7249 30.5731 92.5947C30.5094 92.4645 30.4196 92.3488 30.3092 92.2548C30.1989 92.1609 30.0703 92.0906 29.9317 92.0484C29.793 92.0063 29.6471 91.9931 29.5031 92.0097C29.3591 92.0264 29.2201 92.0725 29.0947 92.1451C28.9483 92.2077 28.8175 92.3017 28.7113 92.4203C28.6052 92.539 28.5264 92.6794 28.4804 92.8319L28.875 92.9517C28.9019 92.856 28.9494 92.7674 29.0141 92.6919C29.0788 92.6164 29.1591 92.556 29.2495 92.5147C29.3266 92.4754 29.4108 92.4518 29.4971 92.4454C29.5834 92.4389 29.6701 92.4498 29.7522 92.4772C29.8343 92.5046 29.9101 92.5481 29.9751 92.6051C30.0402 92.6622 30.0933 92.7316 30.1313 92.8094C30.1693 92.8871 30.1914 92.9717 30.1963 93.0581C30.2012 93.1445 30.1889 93.231 30.1601 93.3126C30.1312 93.3942 30.0864 93.4692 30.0283 93.5333C29.9701 93.5974 29.8998 93.6493 29.8214 93.6859C29.7083 93.7448 29.5817 93.7732 29.4543 93.7683L29.1946 93.2264Z" fill="#FAFAFA"/>
<path d="M27.9858 92.7145L27.5613 92.9193L28.4478 94.7547L28.8723 94.5474L27.9858 92.7145Z" fill="#FAFAFA"/>
<path d="M26.8672 93.6761L27.0995 94.1606L26.2505 94.5701L26.4153 94.9097L27.2643 94.5002L27.5889 95.1694L28.0134 94.9646L27.1269 93.1292L25.741 93.7985L25.9033 94.1406L26.8672 93.6761Z" fill="#FAFAFA"/>
<path d="M90.4016 20.2775L111.336 25.0876L107.491 41.8243L86.5561 37.0142L90.4016 20.2775Z" fill="#FAFAFA"/>
<path d="M90.4018 20.278L90.5042 20.3054L90.7963 20.3754L91.9325 20.6425L96.2151 21.6414L111.325 25.1374L111.283 25.07C110.137 30.0642 108.823 35.7627 107.432 41.8007L107.507 41.7533L86.5687 36.9538L86.6087 37.0162L89.3705 24.8727C89.7001 23.4094 89.9598 22.2607 90.1371 21.4766C90.2245 21.0845 90.2919 20.7849 90.3369 20.5801C90.3818 20.3754 90.4018 20.268 90.4018 20.268C90.4018 20.268 90.3768 20.3679 90.3294 20.5676C90.2819 20.7674 90.2095 21.0671 90.1196 21.4516C89.9373 22.2332 89.6701 23.3744 89.328 24.8277L86.5088 37.0037V37.0537H86.5587L107.485 41.8856L107.547 41.9006L107.56 41.8382C108.945 35.7951 110.254 30.0842 111.398 25.1074L111.41 25.0525L111.355 25.04L96.1976 21.5865L91.92 20.6201L90.7913 20.3704L90.5042 20.3079L90.4018 20.278Z" fill="#CCDCF2"/>
<path d="M90.9087 21.5036L110.374 25.9759L107.012 40.605L87.5474 36.1326L90.9087 21.5036Z" fill="#B0C6EE"/>
<path d="M107.013 40.6045L102.303 29.9492L96.7844 34.6713L94.6269 30.973L87.5476 36.1346L107.013 40.6045Z" fill="#CCDCF2"/>
<path d="M96.5595 27.457C96.4899 27.7602 96.5117 28.0773 96.6223 28.3682C96.7329 28.659 96.9272 28.9105 97.1807 29.0909C97.4343 29.2713 97.7356 29.3725 98.0466 29.3816C98.3576 29.3908 98.6644 29.3075 98.928 29.1423C99.1917 28.9771 99.4005 28.7374 99.528 28.4536C99.6554 28.1697 99.6958 27.8545 99.6441 27.5476C99.5924 27.2408 99.4509 26.9562 99.2374 26.7298C99.0239 26.5035 98.7481 26.3455 98.4449 26.2758C98.0382 26.1825 97.6112 26.2544 97.2576 26.476C96.904 26.6975 96.6529 27.0503 96.5595 27.457Z" fill="#CCDCF2"/>
<path d="M68.2087 5.53082L100.638 6.87869L99.5608 32.8065L67.1311 31.4586L68.2087 5.53082Z" fill="#FAFAFA"/>
<path d="M68.2096 5.52727C68.2096 5.52727 68.2645 5.52727 68.3669 5.52727L68.8214 5.54974L70.5819 5.63464L77.2217 5.9318L100.635 6.96561L100.555 6.87822C100.23 14.5944 99.8607 23.4417 99.4662 32.8034L99.5636 32.7135L67.1333 31.3801L67.2082 31.46C67.5154 23.6539 67.7726 17.1814 67.9574 12.6541C68.0423 10.3917 68.1097 8.61622 68.1571 7.4101C68.1771 6.8058 68.1946 6.34133 68.2046 6.0217C68.2146 5.70207 68.2171 5.53975 68.2171 5.53975C68.2171 5.53975 68.2046 5.69458 68.1896 6.00422C68.1746 6.31386 68.1521 6.77833 68.1222 7.37514C68.0672 8.58875 67.9873 10.3567 67.8725 12.6191C67.6727 17.1564 67.3905 23.644 67.0484 31.4725V31.5499H67.1283L99.5561 32.8983H99.651V32.8059C100.038 23.4442 100.4 14.5968 100.72 6.88071V6.79581H100.635L77.1618 5.86188L70.5419 5.61217L68.7939 5.54974H68.3469L68.2096 5.52727Z" fill="#CCDCF2"/>
<path d="M69.3011 7.21068L99.4529 8.46387L98.511 31.1257L68.3592 29.8726L69.3011 7.21068Z" fill="#B0C6EE"/>
<path d="M98.51 31.1253L88.5664 16.5994L81.6744 25.1421L77.4467 20.2478L68.3597 29.8717L98.51 31.1253Z" fill="#CCDCF2"/>
<path d="M79.3444 14.4895C79.3256 14.9586 79.4462 15.4228 79.6911 15.8234C79.936 16.224 80.2941 16.543 80.7203 16.7401C81.1464 16.9373 81.6214 17.0036 82.0852 16.9309C82.5491 16.8581 82.9809 16.6495 83.3263 16.3314C83.6716 16.0133 83.9149 15.6 84.0254 15.1436C84.1358 14.6873 84.1086 14.2085 83.947 13.7676C83.7854 13.3268 83.4968 12.9437 83.1176 12.6669C82.7384 12.39 82.2857 12.2317 81.8166 12.2121C81.5047 12.1991 81.1932 12.2476 80.9001 12.3551C80.607 12.4625 80.3379 12.6267 80.1083 12.8382C79.8787 13.0497 79.693 13.3044 79.5619 13.5878C79.4309 13.8711 79.3569 14.1775 79.3444 14.4895Z" fill="#CCDCF2"/>
<path d="M75.9107 48.5601L81.0023 34.1841C81.3444 33.6247 81.4668 32.6084 81.1222 32.074C80.9554 31.8064 80.7014 31.6044 80.403 31.5022L72.2624 28.7878C72.0154 28.7013 71.7487 28.6886 71.4946 28.7511C71.2405 28.8136 71.0102 28.9487 70.8315 29.1399L69.2434 30.7905L58.5856 27.2471C57.2097 26.6552 55.9536 27.4743 55.7139 28.5381L51.731 40.8714C51.3939 42.3697 52.3003 43.8929 53.5364 44.305L72.3598 50.5827C73.6533 51.0048 75.1241 50.2307 75.9107 48.5601Z" fill="#5694FF"/>
<g opacity="0.3">
<path opacity="0.3" d="M75.9107 48.5601L81.0023 34.1841C81.3444 33.6247 81.4668 32.6084 81.1222 32.074C80.9554 31.8064 80.7014 31.6044 80.403 31.5022L72.2624 28.7878C72.0154 28.7013 71.7487 28.6886 71.4946 28.7511C71.2405 28.8136 71.0102 28.9487 70.8315 29.1399L69.2434 30.7905L58.5856 27.2471C57.2097 26.6552 55.9536 27.4743 55.7139 28.5381L51.731 40.8714C51.3939 42.3697 52.3003 43.8929 53.5364 44.305L72.3598 50.5827C73.6533 51.0048 75.1241 50.2307 75.9107 48.5601Z" fill="black"/>
</g>
<path d="M76.1953 48.4179L80.3381 36.3118C80.5503 35.3129 80.1508 34.394 79.4042 34.1443L58.0562 27.025C57.1522 26.7253 56.1109 27.5244 55.8287 28.7155L51.9257 39.8902C50.9918 42.692 52.2029 44.0254 53.4789 44.4524L72.1849 50.6953C74.1077 51.332 75.4862 50.8601 76.1953 48.4179Z" fill="#5694FF"/>
<path d="M60.7082 41.4257C60.7082 41.4257 60.6083 41.3883 60.436 41.2884C60.1877 41.135 59.9891 40.913 59.8642 40.6491C59.7262 40.3492 59.6911 40.0121 59.7643 39.6902C59.7968 39.5728 59.8392 39.4405 59.8842 39.3181L60.4785 37.5701L60.8231 36.5513C60.883 36.3765 60.943 36.1942 61.0054 36.0094C61.0591 35.8235 61.1337 35.6442 61.2276 35.4751C61.3872 35.2105 61.6179 34.996 61.8934 34.8561C62.1688 34.7162 62.4781 34.6563 62.7858 34.6835C63.0033 34.7119 63.2163 34.7672 63.4201 34.8483L68.9987 36.7211C69.2254 36.8229 69.4251 36.9765 69.5817 37.1695C69.7382 37.3625 69.8473 37.5895 69.9002 37.8323C69.9527 38.0698 69.9475 38.3164 69.8852 38.5515C69.8203 38.7838 69.7329 39.0235 69.658 39.2557C69.345 40.193 69.0462 41.0928 68.7615 41.9551C68.6866 42.1649 68.6266 42.3896 68.5442 42.5819C68.4159 42.8605 68.2044 43.0925 67.9387 43.2459C67.6731 43.3993 67.3664 43.4665 67.0609 43.4384C66.8687 43.4131 66.6801 43.3654 66.4991 43.2961L65.9547 43.1163L64.9334 42.7817L61.8494 41.7828L61.0079 41.5156L60.7881 41.4482L60.7132 41.4307L60.7856 41.4632L61.0004 41.5406L61.8319 41.8327L64.9034 42.879L65.9222 43.2236L66.4641 43.4059C66.6521 43.4798 66.8483 43.5309 67.0485 43.5583C67.3783 43.5905 67.7101 43.5194 67.9978 43.3547C68.2854 43.1901 68.5148 42.9401 68.6541 42.6393C68.749 42.4246 68.8039 42.2173 68.8813 42.0001L69.7778 39.3081C69.8552 39.0584 69.9401 38.8462 70.01 38.594C70.0774 38.3392 70.0826 38.072 70.025 37.8149C69.9691 37.551 69.8514 37.3042 69.6817 37.0945C69.512 36.8849 69.2951 36.7184 69.0487 36.6088C67.0509 35.927 65.1756 35.3127 63.4526 34.7384C63.2397 34.6558 63.0174 34.5996 62.7908 34.5711C62.4623 34.5421 62.1322 34.6067 61.8388 34.7574C61.5454 34.9081 61.3006 35.1387 61.1327 35.4226C61.0346 35.5995 60.9575 35.7872 60.903 35.982C60.8406 36.1668 60.7807 36.3465 60.7232 36.5238C60.6059 36.8784 60.4935 37.2205 60.3886 37.5452C60.1738 38.1944 59.9816 38.7937 59.8118 39.2932C59.7693 39.423 59.7269 39.5429 59.6969 39.6727C59.6708 39.7941 59.659 39.9182 59.6619 40.0423C59.6674 40.2999 59.7392 40.5518 59.8704 40.7736C60.0017 40.9954 60.1879 41.1796 60.4111 41.3083C60.5041 41.3612 60.6042 41.4007 60.7082 41.4257Z" fill="#FAFAFA"/>
<path d="M59.6069 40.1773C59.6493 40.1615 59.6896 40.1406 59.7268 40.1149L60.0389 39.9276L61.2201 39.1785L62.0366 38.6366L62.4886 38.3419L62.7233 38.1896C62.7987 38.1449 62.8855 38.1232 62.9731 38.1272C63.0612 38.13 63.1466 38.1584 63.2189 38.209C63.2912 38.2595 63.3472 38.33 63.3801 38.4118L63.5874 39.0012L64.0268 40.2497C64.0968 40.442 64.1617 40.6293 64.2266 40.8066L64.2516 40.879L64.319 40.8465L65.4128 40.3171L65.6625 40.1923C65.7392 40.1467 65.824 40.1161 65.9122 40.1024C65.9934 40.0938 66.0754 40.1052 66.1512 40.1357C66.2269 40.1662 66.2941 40.2148 66.3467 40.2772C66.3974 40.3436 66.4385 40.4167 66.469 40.4944L66.5789 40.7242L66.7937 41.1662L67.1757 41.9553L67.7351 43.0865L67.8924 43.3911C67.9103 43.4269 67.9312 43.4612 67.9548 43.4935C67.9477 43.4533 67.9342 43.4145 67.9149 43.3786C67.8799 43.2937 67.835 43.1913 67.78 43.0665C67.6502 42.7768 67.4729 42.3898 67.2581 41.9178C67.1458 41.6681 67.0234 41.4059 66.8911 41.1212C66.8236 40.9764 66.7562 40.8291 66.6838 40.6767C66.6488 40.5993 66.6114 40.5219 66.5764 40.442C66.5416 40.3537 66.4963 40.2698 66.4416 40.1923C66.3772 40.1127 66.2938 40.0506 66.1991 40.0118C66.1044 39.9729 66.0014 39.9586 65.8997 39.97C65.7984 39.9842 65.7008 40.0182 65.6125 40.0699L65.3628 40.1923L64.2641 40.7167L64.359 40.7541C64.294 40.5768 64.2291 40.3896 64.1617 40.1973L63.7172 38.9487L63.5049 38.3569C63.4631 38.2515 63.3909 38.1609 63.2976 38.0965C63.2043 38.032 63.0939 37.9967 62.9806 37.9948C62.8713 37.9924 62.7637 38.0219 62.6709 38.0797L62.4212 38.2345L61.9742 38.5367L61.1726 39.0761L60.014 39.8677L59.7043 40.0899C59.6684 40.115 59.6357 40.1443 59.6069 40.1773Z" fill="#FAFAFA"/>
<path d="M65.4503 38.477C65.4503 38.477 65.3854 38.442 65.2805 38.3671C65.1338 38.262 65.0252 38.1122 64.9708 37.9401C64.932 37.8158 64.9242 37.6839 64.9481 37.5559C64.9721 37.428 65.027 37.3078 65.1082 37.206C65.2083 37.084 65.3428 36.9949 65.4943 36.9504C65.6457 36.9058 65.807 36.9079 65.9572 36.9562C66.1068 37.0063 66.2375 37.1008 66.3321 37.227C66.4267 37.3533 66.4806 37.5053 66.4866 37.6629C66.4913 37.793 66.4637 37.9223 66.4062 38.0391C66.3486 38.1559 66.263 38.2566 66.157 38.3322C66.0117 38.4369 65.8366 38.492 65.6576 38.4895C65.5896 38.4809 65.5213 38.4759 65.4528 38.4745C65.4528 38.4745 65.5152 38.5219 65.6526 38.5419C65.8493 38.567 66.0486 38.521 66.2144 38.4121C66.3385 38.3308 66.4402 38.2195 66.51 38.0886C66.5798 37.9577 66.6156 37.8113 66.614 37.6629C66.6113 37.4776 66.551 37.2977 66.4416 37.1481C66.3322 36.9986 66.179 36.8867 66.0032 36.828C65.8274 36.7693 65.6377 36.7667 65.4603 36.8205C65.283 36.8744 65.1268 36.982 65.0133 37.1285C64.9221 37.2463 64.8622 37.3852 64.8391 37.5323C64.8159 37.6794 64.8303 37.83 64.881 37.9701C64.9489 38.1561 65.0808 38.3119 65.253 38.4096C65.3729 38.477 65.4478 38.4845 65.4503 38.477Z" fill="#FAFAFA"/>
<path d="M94.8915 100.473L104.238 60.9961C104.63 59.343 104.103 57.5626 102.812 56.5363C102.177 56.0185 101.384 55.7323 100.565 55.7247L74.6947 54.9106C74.0145 54.8968 73.345 55.0818 72.7684 55.4428C72.1918 55.8039 71.733 56.3254 71.4484 56.9433L68.8714 62.2922L36.0416 62.3246C33.6294 62.3246 31.0973 65.6708 31.3844 68.48L28.5752 101.357C28.9822 105.323 32.4832 108.307 35.8868 108.307H87.7572C91.3131 108.317 94.3221 105.213 94.8915 100.473Z" fill="#5694FF"/>
<g opacity="0.3">
<path opacity="0.3" d="M94.8915 100.473L104.238 60.9961C104.63 59.343 104.103 57.5626 102.812 56.5363C102.177 56.0185 101.384 55.7323 100.565 55.7247L74.6947 54.9106C74.0145 54.8968 73.345 55.0818 72.7684 55.4428C72.1918 55.8039 71.733 56.3254 71.4484 56.9433L68.8714 62.2922L36.0416 62.3246C33.6294 62.3246 31.0973 65.6708 31.3844 68.48L28.5752 101.357C28.9822 105.323 32.4832 108.307 35.8868 108.307H87.7572C91.3131 108.317 94.3221 105.213 94.8915 100.473Z" fill="black"/>
</g>
<path d="M94.4446 101.622L96.9167 57.8874L35.6871 56.961L33.5396 100.793L94.4446 101.622Z" fill="#CCDCF2"/>
<path d="M94.7242 59.6803C94.7305 59.7596 94.7598 59.8354 94.8085 59.8983C94.8571 59.9612 94.9231 60.0087 94.9982 60.0347C95.0734 60.0608 95.1545 60.0644 95.2317 60.0452C95.3089 60.0259 95.3788 59.9845 95.4329 59.9262C95.4869 59.8678 95.5228 59.795 95.5362 59.7165C95.5495 59.6381 95.5397 59.5575 95.508 59.4845C95.4763 59.4116 95.424 59.3494 95.3575 59.3057C95.2911 59.262 95.2133 59.2386 95.1338 59.2383C95.0778 59.2402 95.0227 59.2532 94.9718 59.2765C94.9209 59.2998 94.875 59.333 94.837 59.374C94.7989 59.4151 94.7693 59.4633 94.75 59.5159C94.7306 59.5685 94.7219 59.6243 94.7242 59.6803Z" fill="#B0C6EE"/>
<path d="M93.1361 59.6803C93.1424 59.7596 93.1717 59.8354 93.2203 59.8983C93.269 59.9612 93.3349 60.0087 93.4101 60.0347C93.4852 60.0608 93.5664 60.0644 93.6436 60.0452C93.7208 60.0259 93.7907 59.9845 93.8447 59.9262C93.8988 59.8678 93.9347 59.795 93.9481 59.7165C93.9614 59.6381 93.9516 59.5575 93.9199 59.4845C93.8882 59.4116 93.8359 59.3494 93.7694 59.3057C93.7029 59.262 93.6252 59.2386 93.5456 59.2383C93.4896 59.2402 93.4346 59.2532 93.3837 59.2765C93.3327 59.2998 93.2869 59.333 93.2488 59.374C93.2108 59.4151 93.1812 59.4633 93.1619 59.5159C93.1425 59.5685 93.1337 59.6243 93.1361 59.6803Z" fill="#B0C6EE"/>
<path d="M91.5453 59.6803C91.5516 59.7596 91.5808 59.8354 91.6295 59.8983C91.6782 59.9612 91.7441 60.0087 91.8193 60.0347C91.8944 60.0608 91.9756 60.0644 92.0528 60.0452C92.1299 60.0259 92.1998 59.9845 92.2539 59.9262C92.308 59.8678 92.3439 59.795 92.3572 59.7165C92.3706 59.6381 92.3608 59.5575 92.3291 59.4845C92.2973 59.4116 92.2451 59.3494 92.1786 59.3057C92.1121 59.262 92.0344 59.2386 91.9548 59.2383C91.842 59.2429 91.7355 59.2919 91.6588 59.3748C91.582 59.4576 91.5412 59.5674 91.5453 59.6803Z" fill="#B0C6EE"/>
<path d="M72.7768 59.6801L69.0836 81.6299L98.1427 85.9949L101.836 64.0451L72.7768 59.6801Z" fill="#B0C6EE"/>
<path d="M72.7744 59.6801L72.9142 59.7051L73.3212 59.77L74.8994 60.0197L80.8451 60.9312L101.821 64.1175L101.759 64.0351C100.655 70.5676 99.3938 78.0565 98.0553 85.9824L98.1527 85.915L69.0911 81.5625L69.151 81.6399C70.2473 75.0275 71.1487 69.5488 71.793 65.7157C72.1076 63.7979 72.3548 62.2946 72.5247 61.2633C72.6071 60.7514 72.6695 60.3593 72.7144 60.0896C72.7594 59.82 72.7744 59.6801 72.7744 59.6801C72.7744 59.6801 72.7469 59.81 72.6994 60.0722C72.652 60.3344 72.5846 60.7264 72.4972 61.2308C72.3199 62.2572 72.0627 63.7554 71.7331 65.6632C71.0763 69.5038 70.1399 74.995 69.0112 81.6199L68.9987 81.6848H69.0686L98.1302 86.0748L98.2126 86.0873L98.2276 86.0074C99.5586 78.0815 100.815 70.5926 101.911 64.0576V63.9877H101.836L80.7976 60.8663L74.862 59.9923L73.2963 59.7675L72.8967 59.7101L72.7744 59.6801Z" fill="#263238"/>
<path d="M97.3737 84.4619L70.3548 80.404L73.5836 61.2186L100.603 65.2764L97.3737 84.4619Z" fill="#455A64"/>
<g opacity="0.3">
<path opacity="0.3" d="M97.3735 84.4617L89.9421 71.1195L82.8427 77.7019L79.549 73.1172L70.3546 80.4038L97.3735 84.4617Z" fill="black"/>
</g>
<g opacity="0.3">
<path opacity="0.3" d="M81.8615 68.4077C81.823 68.6787 81.839 68.9546 81.9086 69.2193C81.9781 69.4841 82.0999 69.7322 82.2667 69.9492C82.4334 70.1663 82.6419 70.3478 82.8798 70.4831C83.1177 70.6185 83.3802 70.705 83.6519 70.7375C84.202 70.8317 84.767 70.7078 85.2272 70.3921C85.6873 70.0765 86.0064 69.594 86.1166 69.047C86.1555 68.7761 86.1398 68.5002 86.0706 68.2355C86.0013 67.9708 85.8798 67.7227 85.7132 67.5056C85.5466 67.2885 85.3383 67.107 85.1006 66.9716C84.8628 66.8361 84.6004 66.7496 84.3287 66.7171C83.7782 66.6216 83.2122 66.7449 82.7513 67.0607C82.2904 67.3765 81.9711 67.8599 81.8615 68.4077Z" fill="black"/>
</g>
<path d="M92.6791 103.697L93.5056 61.1437L30.8826 61.0114L31.1398 103.063L92.6791 103.697Z" fill="#B0C6EE"/>
<path d="M89.8749 62.8092C89.8812 62.8885 89.9104 62.9643 89.9591 63.0272C90.0078 63.0901 90.0737 63.1376 90.1489 63.1636C90.224 63.1897 90.3052 63.1933 90.3823 63.1741C90.4595 63.1548 90.5294 63.1134 90.5835 63.0551C90.6376 62.9967 90.6735 62.9239 90.6868 62.8454C90.7002 62.767 90.6904 62.6864 90.6587 62.6134C90.6269 62.5405 90.5746 62.4783 90.5082 62.4346C90.4417 62.3909 90.3639 62.3675 90.2844 62.3672C90.1716 62.3718 90.0651 62.4208 89.9884 62.5037C89.9116 62.5865 89.8708 62.6963 89.8749 62.8092Z" fill="#CCDCF2"/>
<path d="M88.409 62.8092C88.4154 62.8886 88.4447 62.9645 88.4935 63.0275C88.5422 63.0904 88.6083 63.1378 88.6836 63.1638C88.7589 63.1898 88.8402 63.1933 88.9174 63.1738C88.9947 63.1544 89.0646 63.1128 89.1185 63.0542C89.1725 62.9956 89.2082 62.9225 89.2213 62.8439C89.2343 62.7653 89.2242 62.6846 89.1921 62.6117C89.16 62.5388 89.1073 62.4768 89.0405 62.4334C88.9737 62.39 88.8957 62.367 88.8161 62.3672C88.7603 62.3695 88.7055 62.3827 88.6549 62.4061C88.6042 62.4296 88.5587 62.4628 88.5209 62.5038C88.4831 62.5449 88.4538 62.593 88.4346 62.6454C88.4154 62.6978 88.4067 62.7534 88.409 62.8092Z" fill="#CCDCF2"/>
<path d="M91.433 62.8092C91.4393 62.8885 91.4685 62.9643 91.5172 63.0272C91.5659 63.0901 91.6318 63.1376 91.707 63.1636C91.7821 63.1897 91.8633 63.1933 91.9404 63.1741C92.0176 63.1548 92.0875 63.1134 92.1416 63.0551C92.1957 62.9967 92.2316 62.9239 92.2449 62.8454C92.2583 62.767 92.2485 62.6864 92.2168 62.6134C92.185 62.5405 92.1327 62.4783 92.0663 62.4346C91.9998 62.3909 91.9221 62.3675 91.8425 62.3672C91.7297 62.3718 91.6232 62.4208 91.5465 62.5037C91.4697 62.5865 91.4289 62.6963 91.433 62.8092Z" fill="#CCDCF2"/>
<path d="M91.2231 104.736V64.2748L28.8573 64.1425L32.206 105.605L91.2231 104.736Z" fill="#FAFAFA"/>
<path d="M94.2497 100.256L90.519 69.8538C90.2294 67.4765 88.5363 65.7135 86.5411 65.7135H29.5741C27.1643 65.7135 25.294 68.2531 25.5787 71.1373L28.5752 101.175C29.4492 107.418 31.8489 108.317 35.2525 108.317H88.4864C92.0473 108.317 95.4983 107.423 94.2497 100.256Z" fill="#5694FF"/>
<g opacity="0.7">
<path opacity="0.7" d="M56.2758 81.775L54.6376 85.0987C54.5712 85.2311 54.4739 85.3455 54.354 85.4325C54.234 85.5194 54.0949 85.5762 53.9484 85.5981L50.2826 86.125C50.1141 86.1498 49.9559 86.2214 49.8259 86.3316C49.696 86.4418 49.5995 86.5863 49.5475 86.7485C49.4955 86.9108 49.49 87.0844 49.5317 87.2496C49.5734 87.4148 49.6605 87.565 49.7832 87.6832L52.4352 90.2677C52.5408 90.3715 52.6198 90.4992 52.6655 90.6401C52.7112 90.781 52.7221 90.9308 52.6974 91.0768L52.0706 94.7276C52.0417 94.8957 52.0604 95.0685 52.1246 95.2266C52.1888 95.3846 52.296 95.5215 52.4339 95.6218C52.5719 95.7221 52.7352 95.7817 52.9053 95.7941C53.0754 95.8064 53.2456 95.7709 53.3966 95.6915L56.6753 93.9685C56.8062 93.8996 56.9519 93.8636 57.0998 93.8636C57.2477 93.8636 57.3934 93.8996 57.5243 93.9685L60.7881 95.6965C60.9389 95.7762 61.109 95.812 61.2792 95.7997C61.4493 95.7875 61.6126 95.7278 61.7505 95.6274C61.8884 95.527 61.9953 95.3899 62.0591 95.2317C62.123 95.0735 62.1411 94.9006 62.1116 94.7326L61.4873 91.0818C61.4619 90.9358 61.4725 90.7858 61.5182 90.6448C61.5639 90.5038 61.6433 90.3761 61.7495 90.2727L64.4014 87.6882C64.5232 87.5696 64.6095 87.4194 64.6506 87.2544C64.6917 87.0895 64.686 86.9163 64.6341 86.7545C64.5822 86.5926 64.4862 86.4484 64.3569 86.3381C64.2276 86.2277 64.07 86.1557 63.902 86.13L60.2362 85.5981C60.0899 85.5766 59.9509 85.52 59.8313 85.433C59.7117 85.346 59.615 85.2313 59.5495 85.0987L57.9089 81.775C57.8328 81.6236 57.7161 81.4964 57.572 81.4075C57.4278 81.3186 57.2617 81.2716 57.0923 81.2716C56.9229 81.2716 56.7569 81.3186 56.6127 81.4075C56.4685 81.4964 56.3518 81.6236 56.2758 81.775Z" fill="white"/>
</g>
<path d="M109.028 108.316C109.028 108.281 85.6122 108.251 56.7379 108.251C27.8636 108.251 4.44051 108.281 4.44051 108.316C4.44051 108.351 27.8511 108.381 56.7379 108.381C85.6247 108.381 109.028 108.349 109.028 108.316Z" fill="#263238"/>
<path d="M17.2307 99.5042C17.1983 99.7539 16.6114 106.401 16.6114 106.401H13.5624L13.028 99.5316L17.2307 99.5042Z" fill="#EB996E"/>
<path d="M16.956 105.944V106.182C16.956 106.182 21.0612 107.697 21.1287 108.466L13.0629 108.656L13.1104 105.972C13.7156 106.244 14.3725 106.383 15.0362 106.378C15.6998 106.373 16.3547 106.225 16.956 105.944Z" fill="#5694FF"/>
<g opacity="0.6">
<path opacity="0.6" d="M13.9568 106.808C13.8798 106.834 13.8149 106.887 13.7744 106.958C13.7339 107.028 13.7206 107.111 13.737 107.19C13.7593 107.269 13.811 107.335 13.8813 107.376C13.9516 107.417 14.035 107.429 14.1141 107.41C14.1957 107.383 14.2643 107.327 14.3068 107.252C14.3492 107.177 14.3624 107.09 14.3438 107.006C14.3121 106.927 14.2507 106.863 14.1728 106.829C14.095 106.794 14.0067 106.791 13.9268 106.821" fill="white"/>
</g>
<g opacity="0.6">
<path opacity="0.6" d="M13.0728 108.656L13.0853 108.009L20.8089 108.064C20.8089 108.064 21.1735 108.212 21.1385 108.466L13.0728 108.656Z" fill="white"/>
</g>
<path d="M16.9932 106.204C16.9932 106.244 16.796 106.267 16.6062 106.399C16.4164 106.531 16.3165 106.696 16.2791 106.681C16.2416 106.666 16.2965 106.431 16.5288 106.284C16.761 106.137 17.0007 106.169 16.9932 106.204Z" fill="#263238"/>
<path d="M17.8374 106.534C17.8374 106.571 17.6776 106.644 17.5477 106.814C17.4179 106.983 17.3854 107.161 17.3455 107.158C17.3055 107.156 17.2755 106.936 17.4404 106.729C17.6052 106.521 17.8374 106.496 17.8374 106.534Z" fill="#263238"/>
<path d="M18.3519 107.535C18.3169 107.535 18.257 107.35 18.3519 107.13C18.4468 106.911 18.6316 106.823 18.6491 106.856C18.6665 106.888 18.5542 107.006 18.4793 107.185C18.4043 107.365 18.3919 107.53 18.3519 107.535Z" fill="#263238"/>
<path d="M14.5461 100.775C14.5162 101.025 13.9294 107.673 13.9294 107.673H10.8779L10.3435 100.805L14.5461 100.775Z" fill="#FFBE9D"/>
<path d="M10.8703 106.681C10.8703 106.681 13.0128 108.202 14.0491 106.886L14.3213 107.522L15.5374 112.065C15.5795 112.207 15.5678 112.36 15.5048 112.494C15.4418 112.629 15.3317 112.735 15.1953 112.794C15.0914 112.836 14.9774 112.847 14.8672 112.827C14.7569 112.806 14.655 112.754 14.5735 112.677C13.692 111.838 10.4658 108.739 10.4982 108.319L10.5107 107.203C10.5118 107.09 10.5467 106.98 10.6107 106.887C10.6748 106.794 10.7652 106.722 10.8703 106.681Z" fill="#5694FF"/>
<g opacity="0.6">
<path opacity="0.6" d="M15.0906 112.826L10.4959 107.93V108.179C10.4897 108.279 10.5061 108.379 10.5436 108.472C10.5812 108.565 10.6391 108.649 10.7131 108.716C11.0852 109.216 12.114 110.339 14.5537 112.682C14.6237 112.748 14.7091 112.797 14.8022 112.823C14.8954 112.849 14.9935 112.852 15.0881 112.831L15.0906 112.826Z" fill="white"/>
</g>
<g opacity="0.6">
<path opacity="0.6" d="M11.17 107.205C11.2412 107.257 11.2908 107.333 11.3092 107.418C11.3277 107.504 11.3136 107.594 11.2699 107.67C11.2205 107.743 11.1451 107.794 11.0592 107.813C10.9733 107.832 10.8834 107.817 10.8079 107.772C10.7309 107.717 10.6776 107.635 10.6586 107.543C10.6396 107.45 10.6564 107.354 10.7055 107.273C10.7651 107.2 10.8507 107.154 10.944 107.144C11.0374 107.133 11.131 107.16 11.2049 107.218" fill="white"/>
</g>
<path d="M13.7671 110.319C13.9029 110.138 14.0725 109.986 14.2665 109.87C14.4767 109.784 14.7013 109.74 14.9282 109.74C14.9282 109.725 14.8608 109.68 14.726 109.662C14.5483 109.642 14.3686 109.674 14.209 109.755C14.0499 109.834 13.9166 109.957 13.8245 110.109C13.7596 110.229 13.7521 110.314 13.7671 110.319Z" fill="#263238"/>
<path d="M14.179 111.096C14.3408 111.004 14.5076 110.92 14.6784 110.846C14.8632 110.81 15.05 110.786 15.2378 110.774C15.1496 110.718 15.0492 110.685 14.9452 110.676C14.8413 110.668 14.7369 110.685 14.641 110.726C14.3114 110.816 14.149 111.071 14.179 111.096Z" fill="#263238"/>
<path d="M13.0004 109.348C13.2386 109.183 13.4891 109.036 13.7496 108.909C14.0285 108.822 14.313 108.754 14.6011 108.706C14.3007 108.628 13.9825 108.658 13.7021 108.791C13.4098 108.888 13.1612 109.085 13.0004 109.348Z" fill="#263238"/>
<path d="M12.898 107.952C12.9129 107.987 13.2301 107.852 13.6471 107.835C14.0641 107.817 14.3962 107.917 14.3962 107.882C14.1636 107.757 13.9013 107.698 13.6374 107.71C13.3735 107.722 13.1179 107.806 12.898 107.952Z" fill="#263238"/>
<path d="M13.8794 107.822C13.884 107.746 13.8712 107.67 13.842 107.6C13.7869 107.407 13.6934 107.228 13.5673 107.073C13.4857 106.95 13.3653 106.857 13.2252 106.811C13.1784 106.802 13.13 106.806 13.0857 106.824C13.0415 106.842 13.0032 106.872 12.9755 106.911C12.9284 106.993 12.9133 107.09 12.933 107.183C12.9822 107.37 13.0946 107.534 13.2512 107.648C13.4077 107.762 13.5988 107.818 13.792 107.807C13.983 107.791 14.1649 107.718 14.3147 107.599C14.4645 107.479 14.5755 107.318 14.6336 107.135C14.6477 107.089 14.6516 107.04 14.6452 106.993C14.6387 106.945 14.622 106.899 14.5961 106.858C14.567 106.822 14.5275 106.795 14.4829 106.782C14.4383 106.768 14.3907 106.769 14.3464 106.783C14.2124 106.839 14.096 106.929 14.0093 107.045C13.8784 107.196 13.776 107.37 13.7071 107.557C13.6763 107.623 13.6585 107.694 13.6547 107.767C13.7633 107.528 13.9053 107.305 14.0767 107.105C14.1555 107.008 14.2577 106.931 14.3739 106.883C14.3987 106.874 14.426 106.873 14.4516 106.88C14.4772 106.887 14.4998 106.902 14.5162 106.923C14.5447 106.98 14.5501 107.047 14.5312 107.108C14.4748 107.265 14.3741 107.403 14.2411 107.505C14.1082 107.606 13.9488 107.667 13.782 107.68C13.6189 107.69 13.4571 107.644 13.3233 107.55C13.1894 107.456 13.0915 107.32 13.0454 107.163C13.0304 107.098 13.0383 107.03 13.0679 106.97C13.0818 106.948 13.1026 106.93 13.1273 106.92C13.1519 106.909 13.1792 106.907 13.2052 106.913C13.3228 106.953 13.4249 107.029 13.4974 107.13C13.6646 107.337 13.7939 107.571 13.8794 107.822Z" fill="#263238"/>
<path d="M6.57031 63.723L21.5531 66.767L21.5955 69.6661C21.6027 70.1419 21.576 70.6176 21.5156 71.0895L19.7177 85.2682L17.1007 104.958L14.5836 104.818L14.5561 105.592L10.346 105.353C10.346 105.353 7.73148 93.2515 7.94124 90.5596C8.36825 85.0435 7.46429 82.2742 6.78007 79.4499C6.03842 76.3984 3.32404 69.1642 6.57031 63.723Z" fill="#263238"/>
<path d="M16.1469 70.0007C16.1496 70.0256 16.1496 70.0507 16.1469 70.0756C16.1469 70.1305 16.1469 70.2029 16.1469 70.2953C16.1469 70.4976 16.1294 70.7823 16.1169 71.1468C16.0869 71.896 16.042 72.9548 15.987 74.2708C15.8647 76.9152 15.6974 80.556 15.5151 84.5789C15.3328 88.6018 15.1405 92.2451 15.0157 94.8896C14.9457 96.2031 14.8883 97.2693 14.8508 98.0135L14.7984 98.8625C14.7984 98.9549 14.7984 99.0273 14.7834 99.0823C14.7861 99.1072 14.7861 99.1323 14.7834 99.1572C14.7817 99.1322 14.7817 99.1072 14.7834 99.0823C14.7834 99.0273 14.7834 98.9549 14.7834 98.8625C14.7834 98.6602 14.8009 98.3756 14.8134 98.011C14.8434 97.2618 14.8883 96.2006 14.9432 94.8871C15.0656 92.2426 15.2304 88.6018 15.4152 84.5764C15.6 80.551 15.7898 76.9127 15.9146 74.2708C15.9845 72.9548 16.0395 71.8885 16.0794 71.1444C16.1019 70.7823 16.1194 70.4976 16.1294 70.2953C16.1294 70.2029 16.1419 70.1305 16.1469 70.0756C16.1452 70.0506 16.1452 70.0256 16.1469 70.0007Z" fill="#455A64"/>
<path d="M14.7708 98.9549C14.7854 99.0415 14.7913 99.1293 14.7883 99.2171C14.7883 99.4068 14.7883 99.6466 14.7883 99.9287C14.7883 100.531 14.7883 101.36 14.7533 102.276C14.7184 103.192 14.6884 104.024 14.6485 104.623C14.6285 104.923 14.611 105.165 14.5935 105.333C14.5908 105.417 14.579 105.5 14.5586 105.582C14.5483 105.499 14.5483 105.415 14.5586 105.333C14.5586 105.143 14.5586 104.903 14.5786 104.621C14.596 103.997 14.621 103.18 14.6485 102.276C14.6759 101.372 14.6984 100.556 14.7184 99.9287C14.7309 99.6466 14.7409 99.4093 14.7484 99.2196C14.7458 99.1308 14.7534 99.042 14.7708 98.9549Z" fill="#455A64"/>
<path d="M29.4341 43.1915C29.4341 43.1915 22.3797 42.5597 21.738 42.4273C21.0962 42.295 19.121 42.3774 19.121 42.3774L21.4283 48.825L30.9649 47.7213C32.613 47.1819 33.9614 44.1029 33.9614 44.1029L37.0903 38.1572L33.7667 37.8651L29.4341 43.1915Z" fill="#FFBE9D"/>
<path d="M11.7144 42.6494C11.592 42.6918 7.92873 44.0153 6.86245 44.7145C6.11332 45.2139 6.0384 46.4625 6.40548 47.2915L8.22839 51.3918L9.24722 56.4635L5.94851 64.3994L5.61639 65.7079L21.5581 66.8341L22.2598 65.181L21.4282 57.6896V48.2504L19.1209 42.3772L15.1729 42.4271L11.7144 42.6494Z" fill="#5694FF"/>
<g opacity="0.3">
<path opacity="0.3" d="M20.3894 61.1534C20.2149 60.9841 19.9942 60.8703 19.7551 60.8262C16.8775 59.9878 13.9444 59.3527 10.9777 58.9259C10.2885 58.8285 9.5693 58.7461 8.91006 58.9684C8.25081 59.1906 7.49918 59.8224 7.56161 60.5141L7.46672 60.7463C8.6892 61.4607 10.0962 61.7962 11.5096 61.7102C12.3511 61.6728 13.2725 61.5055 13.9792 61.9599C14.4562 62.2696 14.7284 62.8115 15.1404 63.2085C15.4109 63.4668 15.7352 63.6619 16.0902 63.7798C16.4451 63.8977 16.8218 63.9354 17.193 63.8902C17.5634 63.8405 17.9187 63.7118 18.235 63.5127C18.5512 63.3137 18.821 63.049 19.0259 62.7365C19.2507 62.3894 19.448 61.9474 19.8525 61.87C20.0223 61.8376 20.2146 61.87 20.3519 61.7826C20.3964 61.7442 20.4328 61.6973 20.4588 61.6446C20.4849 61.592 20.5001 61.5346 20.5036 61.4759C20.5071 61.4172 20.4988 61.3585 20.4792 61.3031C20.4596 61.2477 20.429 61.1968 20.3894 61.1534Z" fill="black"/>
</g>
<path d="M7.00731 44.6175C6.506 44.882 6.08638 45.2783 5.7937 45.7636C5.19689 46.6526 3.21167 52.5059 3.21167 52.5059L8.27585 54.606L9.52441 51.9166L7.00731 44.6175Z" fill="#5694FF"/>
<path d="M8.2433 48.9173C8.27182 48.9791 8.29117 49.0447 8.30074 49.1121C8.32821 49.2395 8.36567 49.4243 8.40562 49.654C8.48553 50.111 8.57792 50.7477 8.65533 51.4544C8.73275 52.1611 8.74772 52.8054 8.75022 53.2723C8.75022 53.5046 8.75022 53.6919 8.75022 53.8217C8.75338 53.8897 8.74665 53.9579 8.73025 54.024C8.69687 53.7756 8.67853 53.5254 8.67531 53.2748C8.65034 52.8104 8.61039 52.1711 8.54546 51.4669C8.48053 50.7627 8.40062 50.126 8.34069 49.664C8.29381 49.4172 8.26129 49.1679 8.2433 48.9173Z" fill="#263238"/>
<path d="M16.474 52.2659C16.4843 52.3346 16.4843 52.4045 16.474 52.4732C16.4555 52.6614 16.4212 52.8476 16.3716 53.0301C16.2071 53.6371 15.8938 54.1934 15.4599 54.6486C15.026 55.1039 14.4853 55.4436 13.8869 55.6371C13.7079 55.696 13.5241 55.7394 13.3376 55.7669C13.2688 55.7763 13.1991 55.7763 13.1303 55.7669C13.1303 55.7469 13.42 55.712 13.862 55.5497C14.4377 55.3412 14.9573 55.002 15.3798 54.5587C15.8023 54.1155 16.1161 53.5802 16.2967 52.9951C16.434 52.5581 16.454 52.2634 16.474 52.2659Z" fill="#263238"/>
<path d="M20.9512 42.3598C21.8452 42.3598 25.4036 42.8068 25.4036 42.8068L25.7856 48.5751L21.4282 49.1045L18.4316 42.3623C18.4316 42.3623 20.0547 42.3523 20.9512 42.3598Z" fill="#5694FF"/>
<path d="M23.0588 33.7722C23.0467 33.7154 23.0151 33.6646 22.9695 33.6286C22.9239 33.5926 22.8672 33.5736 22.8091 33.5749C22.8421 33.5434 22.8658 33.5035 22.8777 33.4595C22.8896 33.4154 22.8892 33.369 22.8765 33.3252C22.8497 33.2658 22.8008 33.2193 22.7401 33.1955C22.6795 33.1717 22.612 33.1725 22.5519 33.1978C22.5926 33.134 22.6164 33.0609 22.6211 32.9854C22.6259 32.9098 22.6113 32.8343 22.5789 32.766C22.5464 32.6976 22.4971 32.6385 22.4356 32.5944C22.3742 32.5503 22.3025 32.5225 22.2273 32.5136C22.2756 32.4404 22.302 32.3548 22.3033 32.2671C22.3045 32.1793 22.2806 32.0931 22.2344 32.0185C22.1882 31.9439 22.1215 31.8841 22.0424 31.8461C21.9633 31.8082 21.8749 31.7937 21.7878 31.8044C21.8451 31.7538 21.8819 31.6841 21.8915 31.6083C21.9012 31.5325 21.8828 31.4558 21.84 31.3924C21.7972 31.3291 21.7328 31.2836 21.6589 31.2643C21.5849 31.245 21.5065 31.2532 21.4382 31.2875C21.4593 31.2196 21.4606 31.147 21.4422 31.0783C21.4238 31.0096 21.3863 30.9475 21.3341 30.8992C21.2818 30.8509 21.217 30.8183 21.147 30.8053C21.0771 30.7923 21.0049 30.7993 20.9388 30.8256C20.951 30.7568 20.9455 30.6861 20.9227 30.6201C20.8999 30.5541 20.8606 30.4951 20.8086 30.4485C20.7565 30.402 20.6934 30.3695 20.6253 30.3542C20.5572 30.3389 20.4863 30.3413 20.4194 30.3611C20.438 30.2937 20.4319 30.2219 20.4021 30.1587C20.3723 30.0955 20.3209 30.045 20.2571 30.0165C20.1925 29.9911 20.1209 29.9897 20.0553 30.0126C19.9898 30.0355 19.9346 30.0812 19.9 30.1414C19.928 30.0598 19.9258 29.9709 19.8937 29.8908C19.8616 29.8107 19.8018 29.7448 19.7252 29.7052C19.6486 29.6655 19.5603 29.6547 19.4764 29.6747C19.3925 29.6947 19.3186 29.7443 19.2682 29.8142C19.2871 29.7379 19.2793 29.6574 19.2462 29.5861C19.213 29.5147 19.1565 29.4569 19.0859 29.4222C19.0133 29.3913 18.9323 29.3866 18.8567 29.4089C18.781 29.4312 18.7155 29.4792 18.6714 29.5445C18.676 29.4388 18.648 29.3343 18.5913 29.245C18.5346 29.1557 18.4519 29.0859 18.3542 29.0451C18.2553 29.008 18.1471 29.0032 18.0452 29.0315C17.9433 29.0597 17.8531 29.1196 17.7874 29.2024C17.781 29.1086 17.7388 29.0208 17.6696 28.9571C17.6004 28.8935 17.5094 28.8588 17.4153 28.8603C17.2272 28.8703 17.0452 28.9307 16.8884 29.0351C16.8516 28.9623 16.7917 28.9036 16.7181 28.8684C16.6445 28.8332 16.5612 28.8233 16.4814 28.8404C16.3225 28.879 16.1741 28.9524 16.0469 29.0551C16.0254 28.9617 15.9798 28.8756 15.9145 28.8054L15.6224 28.9303C15.7206 28.8676 15.793 28.7717 15.8262 28.6601C15.8595 28.5485 15.8514 28.4286 15.8035 28.3224C15.7556 28.2163 15.671 28.1309 15.5653 28.0821C15.4596 28.0332 15.3398 28.024 15.2278 28.0563C15.4026 27.829 15.2004 27.5144 15.0081 27.3071L14.8383 27.1223C14.7907 27.0627 14.7322 27.0127 14.666 26.975C14.5948 26.9438 14.5146 26.9401 14.4408 26.9645C14.3671 26.989 14.3049 27.0398 14.2664 27.1073C14.2778 27.0305 14.2621 26.9521 14.222 26.8856C14.1819 26.8191 14.1199 26.7686 14.0467 26.7428C13.9724 26.7209 13.8929 26.7256 13.8217 26.7562C13.7506 26.7867 13.6924 26.8412 13.6571 26.9101C13.6089 26.84 13.5444 26.7828 13.4692 26.7432C13.3939 26.7036 13.3102 26.6829 13.2251 26.6829C13.1401 26.6829 13.0564 26.7036 12.9811 26.7432C12.9058 26.7828 12.8413 26.84 12.7931 26.9101C12.7931 26.7528 12.5609 26.7153 12.4236 26.7902C12.2862 26.8651 12.1738 27 12.0115 27.005C11.9169 26.996 11.8233 26.9784 11.7318 26.9525C11.6154 26.9376 11.4978 26.969 11.4044 27.04C11.3109 27.111 11.2492 27.2159 11.2324 27.3321C11.0832 27.2788 10.92 27.2788 10.7708 27.332C10.6215 27.3853 10.4952 27.4885 10.4134 27.6243C10.0236 27.6415 9.64896 27.7803 9.3421 28.0213C9.18728 28.1187 9.01498 28.3259 9.14732 28.4558C9.07066 28.4456 8.99271 28.4523 8.91885 28.4752C8.84499 28.4981 8.77699 28.5368 8.71953 28.5885C8.66208 28.6403 8.61654 28.7039 8.58606 28.775C8.55559 28.846 8.5409 28.9229 8.54301 29.0002C8.46433 28.9865 8.38344 28.994 8.30857 29.0217C8.23369 29.0495 8.16751 29.0966 8.11676 29.1583C8.06601 29.2199 8.03251 29.2939 8.01965 29.3728C8.0068 29.4516 8.01506 29.5324 8.04359 29.607C7.98794 29.5968 7.93055 29.6025 7.87796 29.6233C7.82537 29.6442 7.7797 29.6794 7.74613 29.7249C7.71257 29.7705 7.69246 29.8245 7.68809 29.8809C7.68373 29.9373 7.69529 29.9938 7.72146 30.044C7.66214 30.0335 7.60111 30.0388 7.54447 30.0593C7.48783 30.0798 7.43756 30.1148 7.39865 30.1608C7.35975 30.2067 7.33357 30.2621 7.32274 30.3214C7.3119 30.3806 7.31679 30.4417 7.3369 30.4985C7.15461 30.446 7.01228 30.7032 7.08719 30.8755C7.18772 31.0377 7.34545 31.1562 7.52918 31.2076C7.39212 31.1807 7.24997 31.2076 7.13214 31.2825C7.02476 31.3699 7.01228 31.5722 7.13214 31.6297C7.05497 31.6302 6.97882 31.6473 6.90888 31.6799C6.83894 31.7125 6.77685 31.7598 6.72685 31.8186C6.67684 31.8774 6.6401 31.9463 6.61912 32.0205C6.59813 32.0948 6.59339 32.1727 6.60524 32.2489C6.54688 32.2478 6.48945 32.2636 6.43987 32.2944C6.39029 32.3252 6.3507 32.3697 6.32587 32.4225C6.30105 32.4753 6.29205 32.5342 6.29997 32.592C6.30789 32.6499 6.33239 32.7042 6.37051 32.7484C6.30691 32.7843 6.25354 32.8359 6.21544 32.8982C6.17733 32.9606 6.15576 33.0316 6.15276 33.1046C6.14976 33.1776 6.16543 33.2502 6.19829 33.3154C6.23115 33.3807 6.28011 33.4365 6.34054 33.4775C6.25462 33.5386 6.18194 33.6164 6.12687 33.7063C6.07179 33.7961 6.03546 33.8962 6.02007 34.0005C6.00467 34.1048 6.01053 34.2111 6.03728 34.313C6.06403 34.415 6.11112 34.5105 6.17573 34.5937C6.12695 34.6263 6.08815 34.6717 6.06363 34.7249C6.0391 34.7782 6.02981 34.8372 6.03679 34.8954C6.04378 34.9536 6.06676 35.0087 6.10319 35.0547C6.13962 35.1006 6.18807 35.1355 6.24316 35.1556C6.19778 35.2398 6.17311 35.3336 6.1712 35.4292C6.16929 35.5248 6.19019 35.6195 6.23218 35.7054C6.27416 35.7913 6.33602 35.866 6.41262 35.9232C6.48922 35.9805 6.57837 36.0187 6.67267 36.0346C6.59073 36.0253 6.50815 36.0453 6.43953 36.091C6.3709 36.1367 6.32064 36.2052 6.29763 36.2844C6.27462 36.3636 6.28035 36.4484 6.31379 36.5237C6.34723 36.5991 6.40623 36.6602 6.48038 36.6963V36.7338C6.49287 36.8087 6.54031 36.8761 6.55779 36.9485V36.966C6.53655 37.0244 6.52639 37.0862 6.52783 37.1483V37.1883C6.5014 37.262 6.48217 37.3381 6.4704 37.4155C6.44043 37.7701 6.82998 38.0323 7.08469 38.317C7.22444 38.4731 7.33143 38.6556 7.39933 38.8539C7.47175 39.0836 7.58911 39.3982 7.85131 39.3533C7.81367 39.4077 7.7911 39.4711 7.7859 39.537C7.78071 39.603 7.79308 39.6691 7.82175 39.7287C7.85042 39.7884 7.89437 39.8393 7.94912 39.8765C8.00388 39.9136 8.06749 39.9355 8.13349 39.9401C7.99615 39.9776 8.01612 40.1698 8.13349 40.2572C8.25824 40.328 8.38953 40.3865 8.52553 40.432C8.66787 40.507 8.77525 40.6268 8.9001 40.7117C8.96236 40.7608 9.03769 40.7906 9.11672 40.7972C9.19575 40.8039 9.27499 40.7872 9.34459 40.7492L9.36706 40.7941C9.28965 40.8516 9.31713 40.9839 9.39454 41.0438C9.47908 41.0929 9.577 41.1139 9.67421 41.1038H9.99884C10.4243 41.2693 10.884 41.3277 11.3373 41.2736C11.4291 41.3625 11.5469 41.4198 11.6735 41.4374C11.8001 41.4549 11.929 41.4316 12.0415 41.371C12.1748 41.4531 12.3252 41.5034 12.4811 41.5182C12.637 41.5329 12.7941 41.5116 12.9405 41.4559C13.0747 41.4037 13.1921 41.3159 13.2801 41.2019C13.3681 41.0879 13.4233 40.9521 13.4399 40.8091L13.8244 40.7442L15.2353 41.2086C15.5178 41.3376 15.8357 41.3666 16.1368 41.2911C16.241 41.3762 16.3694 41.4266 16.5037 41.4351C16.6381 41.4437 16.7718 41.4099 16.8859 41.3385C17.0301 41.4413 17.2003 41.5012 17.3771 41.5113C17.5538 41.5215 17.7298 41.4815 17.8848 41.3959C17.9471 41.4902 18.034 41.5657 18.1361 41.6141C18.2383 41.6625 18.3517 41.682 18.4641 41.6706C18.5664 41.6495 18.6697 41.6345 18.7738 41.6257C18.976 41.6257 19.2058 41.7705 19.3631 41.6606C19.4555 41.5957 19.463 41.4708 19.5404 41.3884C19.6553 41.3081 19.7882 41.2575 19.9274 41.2411C20.0648 41.2036 20.312 40.5419 20.262 40.422C20.5892 40.4395 20.8239 39.8777 20.9687 39.3982C21.0892 39.3163 21.1762 39.1938 21.2138 39.053C21.2514 38.9123 21.2371 38.7627 21.1735 38.6316C21.3567 38.5487 21.5139 38.4175 21.6283 38.2521C21.7426 38.0867 21.8099 37.8934 21.8228 37.6927C21.9576 37.6927 22.0575 37.5678 22.0924 37.443C22.1086 37.3085 22.1421 37.1767 22.1923 37.0509C22.2573 36.9435 22.3746 36.8686 22.4146 36.7488C22.4349 36.6668 22.4349 36.5811 22.4146 36.4991C22.3546 36.1894 22.2972 35.8773 22.2373 35.5676C22.2881 35.5547 22.3348 35.5293 22.3733 35.4938C22.4118 35.4582 22.4408 35.4136 22.4576 35.364C22.4745 35.3144 22.4787 35.2613 22.4699 35.2097C22.4611 35.158 22.4395 35.1094 22.4071 35.0682L22.7367 34.8584C22.7268 34.8153 22.7073 34.7749 22.6796 34.7403C22.6519 34.7057 22.6168 34.6778 22.5769 34.6587L22.8691 34.4939C22.8243 34.4525 22.7916 34.3997 22.7745 34.3413C22.7573 34.2828 22.7564 34.2207 22.7717 34.1617L22.2048 34.0119L22.8016 34.1667C22.8747 34.1285 22.9367 34.0721 22.9817 34.003C23.0267 33.9339 23.0533 33.8545 23.0588 33.7722Z" fill="#263238"/>
<path d="M11.5947 32.1367L15.4902 31.2927C16.9285 31.1029 18.5267 32.5088 18.6541 33.9547C18.7964 35.5628 18.9038 37.5305 18.7465 38.7342C18.4243 41.1589 16.5814 41.5135 16.5814 41.5135L16.6089 42.5123C16.6287 43.1993 16.3782 43.8666 15.9113 44.3709C15.4443 44.8751 14.7982 45.1762 14.1118 45.2092C13.7674 45.226 13.423 45.1747 13.0985 45.0582C12.7739 44.9418 12.4755 44.7624 12.2204 44.5305C11.9652 44.2985 11.7583 44.0185 11.6115 43.7065C11.4647 43.3945 11.3809 43.0565 11.3649 42.7121L10.8655 33.0807C10.8554 32.8624 10.9232 32.6477 11.0568 32.4748C11.1903 32.3019 11.381 32.1821 11.5947 32.1367Z" fill="#FFBE9D"/>
<path d="M18.3017 35.62C18.3025 35.6992 18.273 35.7758 18.2191 35.8338C18.1652 35.8919 18.0911 35.9271 18.0121 35.9322C17.9726 35.9363 17.9328 35.9325 17.8948 35.921C17.8569 35.9094 17.8216 35.8904 17.7911 35.8651C17.7606 35.8397 17.7355 35.8085 17.7173 35.7733C17.6991 35.738 17.6881 35.6995 17.685 35.66C17.6829 35.5793 17.7121 35.5009 17.7666 35.4413C17.8211 35.3817 17.8965 35.3455 17.9771 35.3404C18.017 35.3362 18.0573 35.3403 18.0956 35.3523C18.1339 35.3643 18.1693 35.384 18.1997 35.4102C18.2301 35.4364 18.2548 35.4685 18.2724 35.5046C18.2899 35.5407 18.2999 35.58 18.3017 35.62Z" fill="#263238"/>
<path d="M18.3368 35.0657C18.3094 35.1181 18.0397 34.9708 17.7126 35.0357C17.3854 35.1007 17.1832 35.3254 17.1382 35.2854C17.0933 35.2455 17.1382 35.1806 17.2256 35.0757C17.3445 34.9447 17.5035 34.8569 17.6776 34.826C17.8483 34.7951 18.0244 34.8233 18.177 34.9059C18.3094 34.9708 18.3593 35.0432 18.3368 35.0657Z" fill="#263238"/>
<path d="M15.0406 35.8273C15.0434 35.9078 15.0147 35.9862 14.9606 36.0459C14.9065 36.1055 14.8313 36.1418 14.7509 36.147C14.7117 36.1511 14.672 36.1474 14.6342 36.136C14.5964 36.1246 14.5613 36.1058 14.5308 36.0807C14.5004 36.0556 14.4752 36.0247 14.4568 35.9897C14.4385 35.9548 14.4272 35.9166 14.4238 35.8773C14.4217 35.7963 14.4508 35.7176 14.5053 35.6576C14.5597 35.5976 14.6352 35.5609 14.716 35.5551C14.7552 35.5514 14.7948 35.5554 14.8325 35.5671C14.8701 35.5788 14.9051 35.5979 14.9353 35.6232C14.9655 35.6486 14.9904 35.6796 15.0085 35.7147C15.0265 35.7497 15.0375 35.788 15.0406 35.8273Z" fill="#263238"/>
<path d="M15.1181 35.3082C15.0757 35.3581 14.8035 35.1633 14.4239 35.1758C14.0443 35.1883 13.7722 35.3906 13.7297 35.3431C13.6873 35.2957 13.7522 35.2382 13.8695 35.1458C14.029 35.024 14.2233 34.9566 14.4239 34.9536C14.6213 34.9472 14.8155 35.0041 14.9783 35.1159C15.0906 35.2033 15.1381 35.2882 15.1181 35.3082Z" fill="#263238"/>
<path d="M16.2417 37.5754C16.4164 37.5168 16.5975 37.4799 16.7811 37.4655C16.866 37.4655 16.9459 37.4356 16.9584 37.3756C16.9627 37.2881 16.941 37.2012 16.896 37.1259C16.8086 36.9212 16.7212 36.7089 16.6263 36.4842C16.3791 35.9413 16.1762 35.3792 16.0195 34.8036C16.3131 35.3251 16.5636 35.8696 16.7686 36.4317L17.0184 37.076C17.0743 37.178 17.0928 37.2964 17.0708 37.4106C17.0589 37.4407 17.0403 37.4678 17.0166 37.4898C16.9928 37.5119 16.9644 37.5283 16.9335 37.538C16.8872 37.5518 16.8394 37.5594 16.7911 37.5604C16.6095 37.5896 16.4247 37.5947 16.2417 37.5754Z" fill="#263238"/>
<path d="M16.5713 41.5137C15.4378 41.5577 14.3143 41.2872 13.325 40.732C13.325 40.732 14.204 42.3826 16.6138 42.0955L16.5713 41.5137Z" fill="#EB996E"/>
<path d="M15.2553 34.5563C15.2128 34.6437 14.8857 34.5563 14.4911 34.5763C14.0966 34.5963 13.7745 34.6612 13.7295 34.5763C13.7095 34.5338 13.7745 34.4539 13.9093 34.379C14.0893 34.2892 14.2873 34.2414 14.4885 34.2392C14.6896 34.237 14.8886 34.2806 15.0705 34.3665C15.2078 34.434 15.2727 34.5164 15.2553 34.5563Z" fill="#263238"/>
<path d="M18.3244 34.1841C18.2694 34.2665 18.0097 34.2265 17.7076 34.2665C17.4054 34.3064 17.1582 34.3963 17.0883 34.3289C17.0583 34.2939 17.0883 34.2115 17.1882 34.1241C17.3275 34.0155 17.4944 33.948 17.6701 33.9294C17.8449 33.905 18.023 33.9328 18.182 34.0093C18.2994 34.0792 18.3369 34.1516 18.3244 34.1841Z" fill="#263238"/>
<path d="M11.2 36.4092C11.1651 36.3942 9.75666 35.9847 9.80411 37.4206C9.85155 38.8564 11.2849 38.5118 11.2849 38.4694C11.2849 38.4269 11.2 36.4092 11.2 36.4092Z" fill="#FFBE9D"/>
<path d="M10.828 37.9298C10.828 37.9298 10.8055 37.9498 10.7631 37.9698C10.703 37.9941 10.6359 37.9941 10.5758 37.9698C10.4814 37.9141 10.4034 37.8344 10.3499 37.7387C10.2964 37.6431 10.2692 37.535 10.2711 37.4254C10.2638 37.302 10.2834 37.1784 10.3286 37.0633C10.3408 37.0181 10.3637 36.9766 10.3955 36.9423C10.4272 36.9079 10.4668 36.8818 10.5109 36.866C10.5395 36.8581 10.57 36.8602 10.5973 36.872C10.6245 36.8838 10.6469 36.9046 10.6607 36.931C10.6807 36.9684 10.6732 36.9984 10.6807 37.0009C10.6882 37.0034 10.7106 36.9759 10.6981 36.916C10.6882 36.8811 10.6671 36.8504 10.6382 36.8286C10.6182 36.8142 10.5955 36.804 10.5715 36.7984C10.5475 36.7928 10.5227 36.7921 10.4984 36.7961C10.4407 36.8109 10.3876 36.8399 10.344 36.8805C10.3004 36.9211 10.2676 36.9719 10.2487 37.0283C10.192 37.1544 10.1671 37.2925 10.1762 37.4304C10.1732 37.5582 10.2081 37.6841 10.2765 37.7921C10.345 37.9001 10.4439 37.9854 10.5608 38.0372C10.5995 38.0486 10.6404 38.0505 10.6799 38.0427C10.7195 38.0348 10.7566 38.0175 10.788 37.9922C10.828 37.9748 10.833 37.9423 10.828 37.9298Z" fill="#EB996E"/>
<path d="M9.05747 39.7104C9.75916 39.9401 9.51694 36.5665 10.1138 36.132C10.7106 35.6975 10.8929 37.3681 11.6944 36.7638C12.2163 36.3717 11.8543 36.1295 12.1489 35.5477C12.5385 34.781 13.6946 34.6687 14.0892 33.9045C14.3189 33.4576 14.229 32.9057 14.4787 32.4637C14.7285 32.0217 15.1979 31.8619 15.6574 31.757C16.1169 31.6521 16.5988 31.5972 17.0033 31.355C17.4079 31.1128 17.7 30.6058 17.5028 30.1663C15.524 30.1668 13.5523 30.4032 11.6295 30.8705C11.1825 30.9779 10.7131 31.1202 10.4134 31.4649C10.1138 31.8095 10.0513 32.3538 10.0164 32.8358L9.49946 39.9126" fill="#263238"/>
<path d="M14.5036 26.7204C14.5036 26.7204 14.5186 26.7054 14.5511 26.6804C14.5986 26.6443 14.6563 26.6242 14.7159 26.623C14.7624 26.6211 14.8088 26.6293 14.8519 26.647C14.895 26.6646 14.9338 26.6914 14.9656 26.7253C15.0477 26.8157 15.0939 26.9329 15.0954 27.055V27.0899L15.1254 27.0749C15.2119 27.039 15.3064 27.027 15.3991 27.0402C15.4918 27.0534 15.5793 27.0913 15.6523 27.1499C15.7351 27.22 15.7929 27.3152 15.8167 27.4211C15.8406 27.527 15.8294 27.6378 15.7847 27.7367L15.7122 27.9015L15.8321 27.7691C15.8814 27.7235 15.9434 27.6941 16.0099 27.6847C16.0764 27.6753 16.1442 27.6865 16.2042 27.7167C16.2782 27.7516 16.3381 27.8107 16.3739 27.8843C16.4098 27.9578 16.4195 28.0414 16.4014 28.1212C16.3873 28.1994 16.3548 28.273 16.3066 28.336C16.2877 28.3666 16.263 28.3932 16.2339 28.4142C16.2047 28.4352 16.1717 28.4502 16.1368 28.4584C16.1229 28.4585 16.1094 28.4542 16.0982 28.4461C16.0869 28.438 16.0786 28.4266 16.0743 28.4134C16.0743 28.3909 16.0743 28.371 16.1118 28.366C16.1424 28.3653 16.1724 28.3744 16.1975 28.3919C16.2227 28.4094 16.2416 28.4344 16.2516 28.4634C16.285 28.5825 16.2762 28.7095 16.2266 28.8229C16.1652 28.9984 16.0693 29.1597 15.9445 29.2974C15.8571 29.3948 15.7971 29.4372 15.7996 29.4422C15.8021 29.4472 15.8171 29.4422 15.8446 29.4148C15.8856 29.3828 15.9248 29.3487 15.9619 29.3124C16.0943 29.1768 16.1972 29.0152 16.2641 28.8379C16.3233 28.7149 16.3349 28.5744 16.2966 28.4434C16.2828 28.4035 16.2563 28.3694 16.221 28.3463C16.1857 28.3233 16.1438 28.3126 16.1018 28.316C16.0774 28.3196 16.0551 28.332 16.0394 28.351C16.031 28.3618 16.0252 28.3745 16.0226 28.3879C16.02 28.4013 16.0206 28.4152 16.0244 28.4284C16.0314 28.4528 16.0462 28.4743 16.0664 28.4896C16.0867 28.5049 16.1114 28.5132 16.1368 28.5133C16.1826 28.5104 16.2264 28.4929 16.2616 28.4634C16.2959 28.437 16.3261 28.4059 16.3515 28.371C16.407 28.2977 16.4439 28.212 16.4589 28.1212C16.4751 28.0303 16.4647 27.9367 16.4289 27.8516C16.3901 27.7611 16.3175 27.6894 16.2266 27.6518C16.1556 27.6171 16.0757 27.6049 15.9976 27.617C15.9195 27.629 15.8469 27.6647 15.7896 27.7192L15.8396 27.7517C15.887 27.6404 15.8975 27.5168 15.8696 27.3991C15.8418 27.2814 15.777 27.1757 15.6848 27.0974C15.6045 27.0336 15.5082 26.9932 15.4065 26.9804C15.3048 26.9676 15.2015 26.983 15.1079 27.025L15.1404 27.045C15.1352 26.9118 15.082 26.7849 14.9906 26.6879C14.9544 26.6528 14.9113 26.6258 14.8639 26.6086C14.8166 26.5913 14.7661 26.5843 14.7159 26.588C14.6521 26.5926 14.5915 26.6181 14.5436 26.6604C14.5325 26.6711 14.5225 26.6828 14.5136 26.6954C14.5136 26.6954 14.5011 26.7204 14.5036 26.7204Z" fill="#263238"/>
<path d="M19.5854 29.667C19.5854 29.667 19.5854 29.667 19.6029 29.637C19.6115 29.6034 19.6115 29.5682 19.6029 29.5346C19.5898 29.4791 19.558 29.4298 19.513 29.3948C19.484 29.3696 19.4492 29.352 19.4116 29.3437C19.3741 29.3354 19.3351 29.3367 19.2982 29.3474L19.3207 29.3673C19.3258 29.3249 19.321 29.2818 19.3067 29.2416C19.2924 29.2013 19.269 29.1648 19.2383 29.1351C19.2045 29.098 19.1617 29.0702 19.114 29.0545C19.0663 29.0387 19.0154 29.0355 18.9661 29.0452L18.9961 29.0627C18.9781 28.9729 18.9415 28.8878 18.8887 28.813C18.8568 28.7725 18.8132 28.7428 18.7638 28.7281C18.7369 28.7196 18.7085 28.717 18.6805 28.7204C18.6525 28.7239 18.6256 28.7333 18.6015 28.748L18.644 28.7655C18.6315 28.6921 18.5968 28.6242 18.5445 28.5711C18.4923 28.518 18.425 28.4821 18.3518 28.4684C18.2724 28.4574 18.1916 28.4726 18.1217 28.5119C18.0518 28.5511 17.9967 28.6121 17.9648 28.6856L17.8674 28.9228L18.0172 28.7156C18.0379 28.6836 18.0523 28.648 18.0596 28.6107C18.0692 28.5521 18.062 28.492 18.0391 28.4373C18.0161 28.3825 17.9782 28.3354 17.9298 28.3011C17.8831 28.2705 17.83 28.2511 17.7746 28.2442C17.7192 28.2372 17.663 28.243 17.6102 28.2611C17.5076 28.2911 17.4191 28.3566 17.3604 28.4459C17.3088 28.5261 17.2748 28.6163 17.2606 28.7106H17.313C17.3053 28.6585 17.2814 28.6102 17.2446 28.5725C17.2079 28.5348 17.1601 28.5098 17.1082 28.5008C17.0223 28.4865 16.9341 28.5024 16.8585 28.5458C16.7326 28.6112 16.6246 28.7063 16.5439 28.823C16.4899 28.8953 16.4594 28.9825 16.4565 29.0727C16.4544 29.0959 16.4544 29.1193 16.4565 29.1426C16.4565 29.1601 16.4565 29.1676 16.4565 29.1651C16.4565 29.1626 16.4565 29.1326 16.4565 29.0727C16.4628 28.9815 16.4968 28.8944 16.5539 28.823C16.6364 28.7179 16.7414 28.6326 16.861 28.5732C16.9319 28.5347 17.0138 28.5215 17.0933 28.5358C17.1343 28.5435 17.1719 28.5638 17.2009 28.5937C17.23 28.6237 17.2491 28.6619 17.2556 28.7031L17.2706 28.9403L17.3055 28.7056C17.3165 28.617 17.351 28.533 17.4055 28.4623C17.4599 28.3916 17.5323 28.3368 17.6152 28.3036C17.6601 28.2883 17.7078 28.2832 17.7549 28.2889C17.802 28.2945 17.8473 28.3106 17.8873 28.336C17.9257 28.3643 17.9557 28.4025 17.9741 28.4464C17.9926 28.4904 17.9988 28.5385 17.9922 28.5857C17.9871 28.6144 17.9761 28.6416 17.9598 28.6656L18.0097 28.6931C18.0359 28.6316 18.0817 28.5804 18.1399 28.5474C18.1981 28.5145 18.2656 28.5016 18.3318 28.5108C18.3941 28.5217 18.4515 28.5515 18.4962 28.5962C18.5409 28.6409 18.5707 28.6983 18.5815 28.7605V28.803L18.6165 28.778C18.6532 28.7605 18.6949 28.7561 18.7344 28.7657C18.774 28.7752 18.8091 28.7981 18.8338 28.8305C18.8825 28.8975 18.9166 28.9741 18.9336 29.0552V29.0777H18.9561C18.9976 29.0697 19.0405 29.0724 19.0806 29.0855C19.1208 29.0986 19.157 29.1217 19.1858 29.1526C19.2124 29.1778 19.2331 29.2085 19.2465 29.2426C19.2599 29.2767 19.2656 29.3133 19.2633 29.3499V29.3773H19.2907C19.3222 29.3679 19.3556 29.3663 19.3878 29.3729C19.4201 29.3794 19.4502 29.3938 19.4755 29.4148C19.5175 29.4452 19.5489 29.488 19.5654 29.5371C19.5846 29.5776 19.5915 29.6227 19.5854 29.667Z" fill="#263238"/>
<path d="M9.82905 33.5823C9.79675 33.5092 9.78057 33.43 9.78161 33.3501C9.78532 33.2553 9.81188 33.1628 9.85902 33.0804C9.92263 32.9696 10.0263 32.8874 10.1487 32.8507H10.1662V32.8332C10.1509 32.7839 10.1498 32.7312 10.163 32.6813C10.1763 32.6314 10.2033 32.5862 10.2411 32.551C10.2834 32.5129 10.3367 32.4893 10.3934 32.4836C10.4629 32.4868 10.5313 32.4646 10.5857 32.4212C10.6311 32.3642 10.6605 32.2961 10.6706 32.2239C10.6808 32.173 10.7022 32.1251 10.7334 32.0837C10.7645 32.0422 10.8046 32.0083 10.8506 31.9843C10.8966 31.9604 10.9473 31.947 10.9991 31.9453C11.051 31.9435 11.1025 31.9534 11.15 31.9742L11.2524 32.0216L11.18 31.9342C11.1359 31.8779 11.1119 31.8085 11.1119 31.7369C11.1119 31.6654 11.1359 31.5959 11.18 31.5397C11.2324 31.4836 11.3034 31.4487 11.3797 31.4413C11.456 31.4339 11.5324 31.4547 11.5945 31.4997L11.6619 31.5522L11.637 31.4697C11.6093 31.3678 11.6147 31.2596 11.6524 31.1609C11.6901 31.0622 11.7582 30.978 11.8467 30.9204C11.9427 30.8629 12.0551 30.8393 12.166 30.8534C12.2769 30.8674 12.3799 30.9183 12.4585 30.9978L12.5185 31.0602V30.9753C12.5056 30.8217 12.5414 30.6679 12.6208 30.5358C12.6923 30.4123 12.7958 30.3105 12.9205 30.2412C13.043 30.176 13.1821 30.1491 13.32 30.1637C13.4521 30.1772 13.5786 30.2242 13.6874 30.3002C13.7962 30.3763 13.8838 30.4788 13.9418 30.5982L13.9718 30.6682L13.9943 30.5958C14.0143 30.5362 14.047 30.4817 14.0901 30.436C14.1332 30.3903 14.1857 30.3545 14.244 30.3311C14.3601 30.2816 14.4897 30.2737 14.6111 30.3086C14.8342 30.3847 15.0222 30.5391 15.1405 30.7431L15.1554 30.7656L15.1754 30.7481C15.2839 30.6558 15.4109 30.5877 15.5479 30.5485C15.6848 30.5093 15.8286 30.4999 15.9695 30.5208C16.1855 30.5514 16.3851 30.6533 16.5363 30.8105C16.6345 30.9099 16.7118 31.0279 16.7636 31.1576C16.7985 31.2475 16.8085 31.2974 16.811 31.2974C16.8057 31.2479 16.794 31.1992 16.7761 31.1526C16.7288 31.0187 16.6539 30.8962 16.5563 30.793C16.403 30.627 16.1979 30.5178 15.9745 30.4834C15.8281 30.4613 15.6787 30.4702 15.5359 30.5093C15.3932 30.5484 15.2601 30.617 15.1454 30.7106H15.1804C15.0557 30.4958 14.8581 30.3328 14.6235 30.2511C14.4916 30.2136 14.3509 30.2216 14.224 30.2736C14.1565 30.2995 14.0955 30.3396 14.045 30.3914C13.9946 30.4431 13.956 30.5052 13.9318 30.5733H13.9843C13.9234 30.4439 13.8299 30.3326 13.713 30.2503C13.5962 30.168 13.4599 30.1175 13.3175 30.1038C13.1682 30.0869 13.0174 30.1166 12.8855 30.1887C12.7505 30.2618 12.6382 30.3707 12.5609 30.5034C12.4764 30.6465 12.4381 30.8121 12.451 30.9778L12.5035 30.9553C12.4196 30.866 12.3081 30.8076 12.187 30.7895C12.0658 30.7714 11.9421 30.7947 11.8358 30.8557C11.7295 30.9166 11.6469 31.0116 11.6013 31.1253C11.5557 31.239 11.5498 31.3648 11.5845 31.4822L11.627 31.4523C11.5934 31.4195 11.5536 31.3936 11.51 31.3762C11.4664 31.3588 11.4198 31.3501 11.3729 31.3507C11.3259 31.3512 11.2795 31.3611 11.2364 31.3796C11.1932 31.3981 11.1541 31.4249 11.1213 31.4585C11.0885 31.4921 11.0627 31.5319 11.0452 31.5755C11.0278 31.6191 11.0191 31.6657 11.0197 31.7126C11.0203 31.7596 11.0301 31.806 11.0486 31.8491C11.0671 31.8923 11.0939 31.9314 11.1276 31.9642L11.1575 31.9242C11.0823 31.8933 10.9995 31.8861 10.9201 31.9035C10.8406 31.9209 10.7684 31.9621 10.713 32.0216C10.5957 32.1365 10.6256 32.3138 10.5432 32.3987C10.4951 32.4348 10.4361 32.4534 10.3759 32.4511C10.3112 32.4578 10.2506 32.4859 10.2036 32.531C10.1603 32.5711 10.1297 32.6229 10.1155 32.6801C10.1013 32.7374 10.1041 32.7975 10.1237 32.8532V32.8307C9.99488 32.8724 9.88681 32.9617 9.82156 33.0804C9.77458 33.1671 9.7497 33.264 9.74914 33.3626C9.74914 33.4234 9.76102 33.4836 9.7841 33.5399C9.79694 33.5561 9.81208 33.5704 9.82905 33.5823Z" fill="#455A64"/>
<path d="M21.2959 33.8544C21.3156 33.828 21.3323 33.7995 21.3459 33.7695C21.3904 33.6893 21.4288 33.6058 21.4607 33.5198C21.5146 33.3796 21.525 33.2265 21.4907 33.0803C21.4672 32.9861 21.4189 32.8999 21.3509 32.8306C21.3138 32.792 21.2692 32.7614 21.2198 32.7407C21.1704 32.7201 21.1172 32.7099 21.0637 32.7107L21.0887 32.7407C21.1003 32.6596 21.0919 32.5768 21.064 32.4997C21.0361 32.4226 20.9897 32.3536 20.9289 32.2987C20.8648 32.2343 20.7849 32.188 20.6972 32.1643C20.6096 32.1406 20.5172 32.1405 20.4294 32.1639L20.4644 32.1963C20.4796 32.1088 20.4761 32.0191 20.4542 31.933C20.4322 31.8469 20.3923 31.7664 20.337 31.6969C20.2773 31.6223 20.2012 31.5625 20.1146 31.5222C20.0279 31.4819 19.9331 31.4622 19.8376 31.4647C19.7626 31.4649 19.6882 31.4785 19.6179 31.5046C19.5529 31.5246 19.483 31.5421 19.4381 31.5046C19.3931 31.4672 19.3831 31.3997 19.3407 31.3373C19.3013 31.2771 19.2504 31.2254 19.1909 31.185C19.0808 31.11 18.9484 31.0751 18.8157 31.086C18.683 31.0969 18.558 31.153 18.4617 31.2449H18.5066C18.483 31.1154 18.4427 30.9895 18.3868 30.8703C18.3367 30.7595 18.2479 30.6707 18.1371 30.6206C18.0344 30.5845 17.9225 30.5845 17.8199 30.6206C17.7338 30.6431 17.6502 30.6741 17.5702 30.713C17.4585 30.7682 17.3551 30.8388 17.2631 30.9228L17.1956 30.9927C17.1807 31.0102 17.1732 31.0202 17.1757 31.0202C17.2971 30.9078 17.4342 30.8135 17.5827 30.7405C17.6631 30.7044 17.7467 30.676 17.8324 30.6556C17.8824 30.6383 17.9353 30.631 17.9882 30.6342C18.041 30.6374 18.0927 30.651 18.1402 30.6742C18.1878 30.6974 18.2303 30.7297 18.2653 30.7694C18.3003 30.8091 18.3272 30.8552 18.3443 30.9053C18.3965 31.0207 18.4334 31.1424 18.4542 31.2674V31.3198L18.4892 31.2799C18.5774 31.1983 18.691 31.1494 18.8109 31.1412C18.9308 31.133 19.0499 31.1661 19.1484 31.2349C19.2022 31.27 19.2482 31.3159 19.2832 31.3698C19.2994 31.3979 19.3136 31.4271 19.3257 31.4572C19.3383 31.4961 19.3628 31.5301 19.3956 31.5546C19.4312 31.5773 19.4738 31.5862 19.5155 31.5795C19.5529 31.5754 19.5898 31.567 19.6254 31.5546C19.7379 31.5139 19.8601 31.5087 19.9757 31.5395C20.0913 31.5703 20.1947 31.6357 20.2721 31.7269C20.3214 31.7898 20.3572 31.8621 20.3774 31.9394C20.3976 32.0168 20.4017 32.0974 20.3895 32.1764V32.2213L20.4344 32.2088C20.5121 32.1873 20.5941 32.1871 20.6718 32.2082C20.7496 32.2293 20.8202 32.2709 20.8764 32.3287C20.9319 32.3765 20.9747 32.4373 21.0008 32.5058C21.027 32.5742 21.0357 32.6481 21.0262 32.7207V32.7507H21.0562C21.1025 32.7504 21.1485 32.7592 21.1913 32.7768C21.2342 32.7944 21.2732 32.8203 21.3059 32.8531C21.3678 32.915 21.4133 32.9914 21.4383 33.0753C21.474 33.2148 21.4671 33.3618 21.4183 33.4973C21.3584 33.7321 21.2859 33.8494 21.2959 33.8544Z" fill="#455A64"/>
<path d="M7.48192 31.3323C7.48743 31.2543 7.50512 31.1777 7.53435 31.1051C7.57154 31.0186 7.6269 30.9411 7.69667 30.8779C7.79038 30.792 7.90971 30.7394 8.03628 30.728H8.05875V30.7081C8.01241 30.5961 8.01241 30.4704 8.05875 30.3585C8.08342 30.2934 8.12218 30.2345 8.17226 30.1862C8.22234 30.1378 8.2825 30.1012 8.34842 30.0788H8.36839V30.0588C8.35166 30.0025 8.34703 29.9433 8.35478 29.885C8.36254 29.8268 8.38252 29.7708 8.4134 29.7209C8.44429 29.6709 8.48539 29.628 8.53401 29.595C8.58263 29.562 8.63767 29.5397 8.69553 29.5294C8.76849 29.5323 8.8404 29.5113 8.90028 29.4695C8.96271 29.4021 8.93774 29.3172 8.96271 29.2622C8.99042 29.2025 9.0406 29.1561 9.10234 29.1332C9.16407 29.1103 9.23236 29.1127 9.29234 29.1399L9.31981 29.1573V29.1249C9.34327 29.0524 9.38121 28.9855 9.43133 28.9282C9.48145 28.8708 9.5427 28.8243 9.61137 28.7914C9.68003 28.7584 9.75467 28.7398 9.83076 28.7366C9.90684 28.7334 9.98277 28.7457 10.054 28.7728H10.0789V28.7453C10.1108 28.6788 10.157 28.6201 10.2142 28.5735C10.2714 28.5269 10.3382 28.4936 10.4098 28.476C10.4815 28.4583 10.5561 28.4567 10.6284 28.4713C10.7008 28.486 10.7689 28.5164 10.8281 28.5605L10.858 28.5855L10.873 28.5505C10.9191 28.4851 10.9803 28.4317 11.0513 28.3948C11.1224 28.358 11.2013 28.3387 11.2813 28.3387C11.3613 28.3387 11.4402 28.358 11.5113 28.3948C11.5823 28.4317 11.6435 28.4851 11.6896 28.5505L11.7195 28.603L11.742 28.548C11.7733 28.4745 11.8291 28.4141 11.8999 28.3772C11.9708 28.3403 12.0523 28.3291 12.1304 28.3456C12.2086 28.3621 12.2786 28.4053 12.3285 28.4677C12.3783 28.5302 12.4049 28.608 12.4038 28.6879V28.7678L12.4562 28.7079C12.5201 28.6445 12.598 28.597 12.6836 28.5692C12.7693 28.5414 12.8602 28.5342 12.9492 28.548C13.0381 28.5619 13.1225 28.5964 13.1957 28.6489C13.2688 28.7014 13.3286 28.7704 13.3701 28.8502L13.3876 28.8951L13.4176 28.8577C13.4905 28.7706 13.5873 28.7068 13.6961 28.6741C13.8048 28.6414 13.9208 28.6412 14.0296 28.6736C14.1385 28.706 14.2355 28.7695 14.3086 28.8563C14.3818 28.9432 14.428 29.0496 14.4414 29.1623V29.1998L14.4764 29.1823C14.5953 29.1199 14.7286 29.0899 14.8628 29.0953C14.997 29.1008 15.1274 29.1415 15.2408 29.2134C15.3542 29.2854 15.4467 29.3859 15.5089 29.5049C15.5711 29.624 15.6008 29.7573 15.5951 29.8915V29.9165H15.6201C15.9183 29.8897 16.2153 29.9792 16.4491 30.1662C16.624 30.3082 16.7519 30.4997 16.8162 30.7156C16.8582 30.8521 16.8751 30.995 16.8661 31.1376C16.8661 31.2375 16.8462 31.2874 16.8511 31.2874C16.8655 31.2394 16.8747 31.19 16.8786 31.1401C16.8932 30.9957 16.8796 30.8498 16.8387 30.7106C16.7785 30.4859 16.6492 30.2859 16.4691 30.1387C16.2298 29.9426 15.9231 29.8485 15.6151 29.8765L15.6375 29.899C15.6427 29.7571 15.6105 29.6163 15.5443 29.4908C15.478 29.3652 15.3799 29.2592 15.2599 29.1834C15.1398 29.1075 15.002 29.0645 14.8601 29.0587C14.7183 29.0528 14.5773 29.0842 14.4514 29.1499L14.4914 29.1723C14.4774 29.0484 14.4273 28.9314 14.3475 28.8357C14.2676 28.74 14.1613 28.6698 14.042 28.6339C13.9226 28.598 13.7953 28.598 13.6758 28.6337C13.5564 28.6695 13.4501 28.7396 13.3701 28.8352H13.4176C13.3756 28.7454 13.3118 28.6674 13.232 28.6085C13.1522 28.5497 13.0589 28.5117 12.9606 28.4981C12.8608 28.4784 12.7575 28.4843 12.6606 28.5153C12.5636 28.5463 12.4761 28.6014 12.4063 28.6754L12.4587 28.6954C12.4576 28.6149 12.4335 28.5364 12.3893 28.4691C12.345 28.4019 12.2825 28.3487 12.209 28.3158C12.111 28.28 12.003 28.2825 11.9067 28.3227C11.8105 28.363 11.7329 28.4381 11.6896 28.5331H11.7445C11.695 28.4563 11.6269 28.3931 11.5467 28.3494C11.4664 28.3057 11.3765 28.2828 11.285 28.2828C11.1936 28.2828 11.1037 28.3057 11.0234 28.3494C10.9432 28.3931 10.8751 28.4563 10.8256 28.5331H10.8705C10.805 28.4783 10.7269 28.4405 10.6433 28.4231C10.5597 28.4056 10.473 28.4091 10.3911 28.4332C10.3113 28.4514 10.2373 28.489 10.1755 28.5425C10.1136 28.5961 10.0659 28.664 10.0365 28.7403L10.0714 28.7253C9.99324 28.6956 9.90979 28.6822 9.82621 28.6859C9.74264 28.6896 9.6607 28.7103 9.58541 28.7467C9.51012 28.7832 9.44308 28.8347 9.38839 28.898C9.3337 28.9613 9.29251 29.0351 9.26736 29.1149L9.30482 29.0999C9.26911 29.0814 9.22991 29.0706 9.18975 29.0681C9.1496 29.0657 9.10938 29.0718 9.07171 29.0859C9.03404 29.1 8.99976 29.1219 8.97109 29.1501C8.94242 29.1784 8.92 29.2123 8.90528 29.2497C8.87782 29.3247 8.90528 29.4021 8.85534 29.4395C8.80182 29.4737 8.73895 29.4903 8.67554 29.487C8.60859 29.4983 8.54515 29.525 8.49015 29.5648C8.43515 29.6046 8.39007 29.6566 8.35841 29.7167C8.32652 29.7699 8.30644 29.8293 8.29954 29.8909C8.29265 29.9525 8.2991 30.0149 8.31846 30.0738L8.33094 30.0488C8.25926 30.0727 8.19392 30.1125 8.13985 30.1653C8.08578 30.218 8.04439 30.2824 8.0188 30.3535C7.99323 30.4126 7.98005 30.4763 7.98005 30.5408C7.98005 30.6052 7.99323 30.6689 8.0188 30.728V30.7081C7.88648 30.7227 7.76271 30.7807 7.6667 30.8729C7.59317 30.9417 7.53747 31.0274 7.50439 31.1226C7.48178 31.1773 7.4691 31.2357 7.46693 31.2949C7.47122 31.3076 7.47622 31.3202 7.48192 31.3323Z" fill="#455A64"/>
<path d="M9.68677 37.93C9.68677 37.93 9.6693 37.93 9.63933 37.9475C9.59574 37.9665 9.55464 37.9909 9.51697 38.0199C9.37429 38.1227 9.2649 38.2651 9.20234 38.4294C9.11434 38.6774 9.11434 38.9481 9.20234 39.1961C9.25898 39.3417 9.35282 39.47 9.47452 39.5681C9.60099 39.6769 9.75311 39.7517 9.91651 39.7854C10.0854 39.8104 10.2578 39.7897 10.4159 39.7254C10.5622 39.6724 10.6916 39.5809 10.7905 39.4608C10.8741 39.3565 10.9354 39.2363 10.9706 39.1074C11.0058 38.9786 11.0142 38.8438 10.9953 38.7116C10.9741 38.5371 10.903 38.3723 10.7905 38.2372C10.7585 38.2019 10.7215 38.1716 10.6806 38.1473L10.6357 38.1273C10.6868 38.1626 10.733 38.2046 10.773 38.2521C10.875 38.3872 10.9373 38.5481 10.9528 38.7166C10.9673 38.8404 10.9568 38.9657 10.9221 39.0854C10.8874 39.205 10.829 39.3165 10.7506 39.4133C10.657 39.527 10.5345 39.6133 10.396 39.663C10.2501 39.7207 10.092 39.7405 9.93648 39.7205C9.78283 39.6873 9.63965 39.617 9.51947 39.5157C9.40854 39.4227 9.32269 39.3033 9.26976 39.1686C9.18716 38.9317 9.18716 38.6738 9.26976 38.4369C9.32616 38.2767 9.42655 38.1357 9.55942 38.0299C9.62685 37.95 9.68927 37.93 9.68677 37.93Z" fill="#CCDCF2"/>
<path d="M15.3402 37.9875C15.4098 37.9162 15.503 37.8727 15.6024 37.8652C15.6747 37.8537 15.7486 37.8583 15.8189 37.8785C15.8893 37.8988 15.9543 37.9343 16.0094 37.9825C16.0631 38.0322 16.1006 38.0968 16.1171 38.1681C16.1336 38.2393 16.1282 38.3139 16.1018 38.3821V38.3446C16.0922 38.4152 16.0641 38.4821 16.0202 38.5382C15.9763 38.5944 15.9183 38.6379 15.8521 38.6642C15.7866 38.6903 15.7159 38.7 15.6458 38.6926C15.5758 38.6852 15.5086 38.6609 15.45 38.6218C15.3922 38.5821 15.3441 38.5298 15.3095 38.4688C15.2749 38.4078 15.2547 38.3397 15.2503 38.2697C15.2453 38.219 15.2507 38.1679 15.2661 38.1193C15.2816 38.0708 15.3068 38.026 15.3402 37.9875Z" fill="#EB996E"/>
<path d="M10.808 36.1445C10.8169 36.2455 10.8563 36.3414 10.9209 36.4194C10.9856 36.4975 11.0725 36.554 11.1701 36.5815C11.0777 36.5815 11.0552 36.7313 11.1201 36.7962C11.1548 36.8241 11.195 36.8443 11.238 36.8555C11.2811 36.8667 11.326 36.8686 11.3698 36.8612C11.5929 36.8392 11.8077 36.7655 11.9971 36.6458C12.1866 36.5262 12.3455 36.3639 12.4611 36.172C12.5193 36.148 12.5714 36.1112 12.6133 36.0642C12.6553 36.0173 12.6861 35.9614 12.7034 35.9009C12.7207 35.8403 12.7241 35.7766 12.7132 35.7146C12.7024 35.6526 12.6777 35.5938 12.6409 35.5427C12.7296 35.5108 12.8028 35.4463 12.8455 35.3623C12.8882 35.2783 12.8972 35.1811 12.8706 35.0907C12.9159 35.0985 12.9624 35.0959 13.0065 35.0829C13.0505 35.0699 13.091 35.0469 13.1248 35.0158C13.1586 34.9847 13.1848 34.9462 13.2013 34.9033C13.2179 34.8604 13.2243 34.8143 13.2202 34.7686C13.6823 34.5455 14.0956 34.2332 14.4363 33.8496C14.4942 33.7743 14.5226 33.6805 14.5161 33.5858C14.5097 33.4911 14.4689 33.402 14.4014 33.3352C14.4464 33.3166 14.4861 33.2871 14.5168 33.2493C14.5475 33.2115 14.5683 33.1666 14.5772 33.1187C14.5862 33.0708 14.583 33.0214 14.568 32.975C14.553 32.9287 14.5266 32.8868 14.4913 32.8533C14.5274 32.844 14.5613 32.8276 14.5909 32.805C14.6205 32.7824 14.6453 32.7541 14.6637 32.7216C14.6821 32.6892 14.6938 32.6535 14.6981 32.6164C14.7023 32.5794 14.6991 32.5419 14.6885 32.5062C14.8558 32.4912 15.6874 32.4213 15.6874 32.2564C16.1519 32.1141 16.3641 31.8794 16.3841 31.757C16.4041 31.6347 16.6463 31.6596 16.6613 31.5348C16.6837 31.3675 16.4615 31.2851 16.2892 31.2851C15.7803 31.2648 15.2743 31.3703 14.8159 31.5922C14.3006 31.8703 13.828 32.221 13.4125 32.6335L12.8182 33.1704C12.6683 33.3052 12.5035 33.4875 12.5685 33.6698C12.4261 33.5974 12.2538 33.7223 12.1839 33.8696C12.114 34.0169 12.104 34.1842 12.0266 34.3241C11.9453 34.4428 11.8525 34.5533 11.7494 34.6537C11.698 34.7039 11.6594 34.7657 11.6368 34.8339C11.6142 34.9021 11.6083 34.9748 11.6196 35.0457C11.4955 35.0332 11.3708 35.0629 11.2657 35.1299C11.1606 35.197 11.0812 35.2975 11.0402 35.4153C10.9129 35.3304 10.7306 35.4628 10.7081 35.6151C10.701 35.7693 10.7458 35.9214 10.8355 36.0471" fill="#263238"/>
<path d="M15.59 35.705C15.5966 35.5977 15.5966 35.4901 15.59 35.3829C15.5592 35.1396 15.4601 34.91 15.304 34.7208C15.148 34.5316 14.9415 34.3906 14.7085 34.3141C14.4905 34.2438 14.2576 34.2334 14.0343 34.2841C13.9139 34.3084 13.7983 34.3523 13.6921 34.414C13.5786 34.4742 13.4757 34.5527 13.3875 34.6462C13.1989 34.8421 13.0778 35.0931 13.0419 35.3626C13.006 35.6321 13.0571 35.906 13.1877 36.1445C13.2477 36.2576 13.3252 36.3604 13.4175 36.4491C13.5053 36.5351 13.6054 36.6075 13.7146 36.6639C13.9175 36.7704 14.145 36.8212 14.3739 36.8112C14.5731 36.8013 14.7672 36.7449 14.9407 36.6464C15.195 36.5046 15.3938 36.2811 15.5051 36.0121C15.5427 35.9128 15.5736 35.811 15.5975 35.7075C15.6008 35.7349 15.6008 35.7625 15.5975 35.7899C15.5925 35.8229 15.5849 35.8554 15.575 35.8873C15.5655 35.9327 15.5512 35.9771 15.5325 36.0196C15.4266 36.2988 15.2272 36.5327 14.9682 36.6814C14.7902 36.7858 14.5899 36.8466 14.3839 36.8587C14.1468 36.8704 13.9108 36.8196 13.6996 36.7113C13.5849 36.6525 13.4797 36.5767 13.3875 36.4866C13.2879 36.3949 13.2036 36.2878 13.1378 36.1694C13.0012 35.9215 12.9478 35.6363 12.9856 35.3557C13.0234 35.0752 13.1502 34.8142 13.3475 34.6112C13.4386 34.511 13.5458 34.4266 13.6647 34.3615C13.7769 34.2983 13.8982 34.2528 14.0243 34.2267C14.2567 34.1777 14.4981 34.1915 14.7235 34.2666C14.9624 34.3467 15.1732 34.4938 15.3308 34.6904C15.4885 34.887 15.5862 35.1248 15.6124 35.3754C15.6124 35.4278 15.6124 35.4752 15.6124 35.5152C15.6155 35.5484 15.6155 35.5819 15.6124 35.6151C15.609 35.6459 15.6015 35.6762 15.59 35.705Z" fill="#455A64"/>
<path d="M19.2958 35.5228C19.3024 35.4164 19.3024 35.3097 19.2958 35.2032C19.2581 34.9108 19.1225 34.6397 18.9112 34.4341C18.7704 34.2948 18.5996 34.1898 18.4118 34.1269C18.194 34.0558 17.9611 34.0446 17.7376 34.0945C17.6171 34.1183 17.5014 34.1622 17.3955 34.2243C17.282 34.2848 17.1791 34.3632 17.0908 34.4566C16.9022 34.6524 16.7811 34.9034 16.7452 35.1729C16.7093 35.4425 16.7604 35.7164 16.891 35.9548C16.951 36.0679 17.0285 36.1708 17.1208 36.2595C17.2079 36.3463 17.3082 36.4187 17.4179 36.4742C17.6208 36.5808 17.8483 36.6316 18.0772 36.6216C18.2762 36.6125 18.4703 36.5569 18.644 36.4593C18.8979 36.316 19.0966 36.0918 19.2084 35.8225C19.2461 35.7232 19.2769 35.6214 19.3008 35.5178C19.3046 35.5452 19.3046 35.5729 19.3008 35.6003C19.2978 35.6342 19.2911 35.6677 19.2808 35.7001C19.2709 35.7447 19.2566 35.7882 19.2383 35.83C19.1327 36.11 18.9333 36.3448 18.674 36.4942C18.482 36.6054 18.265 36.6661 18.0432 36.6709C17.8215 36.6757 17.6021 36.6244 17.4054 36.5217C17.2907 36.4629 17.1855 36.3871 17.0933 36.297C16.9931 36.2057 16.9088 36.0986 16.8436 35.9798C16.707 35.7319 16.6536 35.4466 16.6914 35.1661C16.7292 34.8856 16.856 34.6246 17.0533 34.4216C17.1451 34.322 17.2522 34.2377 17.3705 34.1719C17.4827 34.1087 17.604 34.0632 17.7301 34.0371C17.9626 33.9882 18.2039 34.002 18.4293 34.077C18.6686 34.1568 18.8796 34.3042 19.0369 34.5014C19.1943 34.6986 19.2911 34.9372 19.3158 35.1882C19.3192 35.2339 19.3192 35.2799 19.3158 35.3256C19.3187 35.3596 19.3187 35.3939 19.3158 35.428C19.3137 35.4604 19.307 35.4923 19.2958 35.5228Z" fill="#455A64"/>
<path d="M19.1858 34.5265C19.0589 34.3381 18.8868 34.1845 18.6853 34.0798C18.4837 33.9751 18.2592 33.9226 18.0321 33.9272C17.5043 33.968 17.0138 34.2146 16.6662 34.6139C16.2786 34.509 15.8669 34.5408 15.5 34.7038C15.3486 34.5084 15.1537 34.351 14.931 34.244C14.7082 34.1369 14.4636 34.0832 14.2165 34.087C13.4798 34.087 12.9354 34.8211 12.9354 34.8211L12.3536 34.906L12.411 35.4254L13.0653 35.3455C13.0653 35.3455 13.3375 34.3966 14.1416 34.3467C15.2228 34.2768 15.4076 35.0758 15.4076 35.0758L15.6573 35.0459L15.5749 34.8935C15.906 34.7725 16.2668 34.7586 16.6062 34.8536V35.0384H16.7885C16.8797 34.7824 17.0496 34.5618 17.274 34.4084C17.4983 34.2549 17.7654 34.1765 18.0371 34.1844C18.336 34.1807 18.6259 34.2871 18.8515 34.4832C19.0771 34.6794 19.2227 34.9516 19.2607 35.2481L19.6902 35.2007L19.6752 34.6888L19.1858 34.5265Z" fill="#455A64"/>
<path d="M14.239 36.6638C14.157 36.6836 14.0714 36.6836 13.9893 36.6638C13.7978 36.6264 13.6196 36.5394 13.4723 36.4114C13.3251 36.2834 13.214 36.119 13.1503 35.9347C13.1183 35.8615 13.1029 35.7822 13.1053 35.7024C13.1053 35.7024 13.1303 35.7898 13.1877 35.9222C13.2589 36.0944 13.3693 36.2475 13.5102 36.3693C13.6512 36.4912 13.8186 36.5784 13.9993 36.6239C14.1491 36.6513 14.239 36.6563 14.239 36.6638Z" fill="white"/>
<path d="M17.74 36.4067C17.6755 36.4123 17.6105 36.4029 17.5502 36.3792C17.4016 36.3297 17.2677 36.2439 17.1607 36.1295C17.0506 36.0197 16.9699 35.8841 16.9259 35.735C16.9023 35.6756 16.8929 35.6114 16.8985 35.5477C16.9242 35.6044 16.9459 35.6628 16.9634 35.7225C17.0167 35.8604 17.0974 35.9861 17.2006 36.0921C17.303 36.2003 17.4273 36.2854 17.5652 36.3418C17.6245 36.3605 17.6829 36.3821 17.74 36.4067Z" fill="white"/>
<path d="M14.5437 58.2765L7.47682 55.9991L7.9363 54.4009L3.79855 52.7478C3.21172 54.3984 2.77722 55.4697 2.6174 56.7132C2.6174 56.7882 2.59993 56.8631 2.59743 56.938C2.56235 57.7677 2.83799 58.5807 3.37044 59.2179C3.9029 59.8552 4.6539 60.271 5.47662 60.384L13.9993 60.9534L14.5437 58.2765Z" fill="#FFBE9D"/>
<path d="M15.1804 37.6352C15.2328 37.6352 15.2778 37.9848 15.6174 38.202C15.957 38.4193 16.3341 38.3344 16.3416 38.3843C16.3491 38.4343 16.2667 38.4642 16.1043 38.4892C15.8936 38.5182 15.6794 38.4713 15.5 38.3569C15.3273 38.2484 15.2043 38.0761 15.1579 37.8774C15.1255 37.7301 15.1554 37.6352 15.1804 37.6352Z" fill="#263238"/>
<path d="M45.29 35.7887L51.0515 60.2376L20.4703 67.4442L14.7088 42.9952L45.29 35.7887Z" fill="#FAFAFA"/>
<path d="M14.7085 42.9941C14.7085 42.9941 14.7609 42.9941 14.8583 42.9641L15.2878 42.8667L16.9509 42.4847L23.2187 41.0313L45.3058 35.8673L45.2085 35.8074C46.9215 43.084 48.8842 51.4269 50.9519 60.2543L51.0193 60.1469L20.4519 67.3711L20.5443 67.426C18.7963 60.0695 17.343 53.969 16.3266 49.6964C15.8147 47.5638 15.4152 45.8908 15.1405 44.7446C15.0032 44.1752 14.8908 43.7457 14.8234 43.4386C14.7559 43.1314 14.7085 42.9866 14.7085 42.9866C14.7085 42.9866 14.7385 43.1339 14.8034 43.4261C14.8683 43.7183 14.9707 44.1578 15.1006 44.7221C15.3652 45.8658 15.7523 47.5364 16.2442 49.6664C17.2431 53.9465 18.6739 60.0695 20.397 67.4535L20.4144 67.5284L20.4869 67.5109L51.0742 60.3267L51.1616 60.3042L51.1416 60.2168C49.059 51.3894 47.0888 43.049 45.3733 35.7724L45.3533 35.6925L45.2734 35.71L23.1513 40.9664L16.9085 42.4647L15.2654 42.8617L14.8458 42.9641L14.7085 42.9941Z" fill="#263238"/>
<path d="M44.684 37.9297L49.7341 59.2283L21.399 65.9469L16.3489 44.6484L44.684 37.9297Z" fill="#455A64"/>
<path d="M49.6357 58.946L36.5733 48.0036L32.3806 57.7649L27.1616 54.3039L21.2009 65.6483L49.6357 58.946Z" fill="#455A64"/>
<path d="M27.4265 48.4403C27.5314 48.8827 27.7651 49.2841 28.0981 49.5938C28.4311 49.9034 28.8484 50.1074 29.2973 50.1799C29.7462 50.2525 30.2065 50.1903 30.6201 50.0014C31.0337 49.8124 31.382 49.505 31.6209 49.1181C31.8599 48.7313 31.9788 48.2823 31.9627 47.8278C31.9465 47.3734 31.796 46.9339 31.5302 46.565C31.2643 46.1961 30.8951 45.9143 30.4691 45.7551C30.0432 45.596 29.5796 45.5667 29.137 45.6709C28.8427 45.7402 28.565 45.8669 28.3197 46.0436C28.0745 46.2204 27.8664 46.4437 27.7076 46.701C27.5487 46.9582 27.4421 47.2442 27.3939 47.5426C27.3456 47.8411 27.3567 48.1461 27.4265 48.4403Z" fill="#455A64"/>
<g opacity="0.3">
<path opacity="0.3" d="M49.6357 58.946L36.5733 48.0036L32.3806 57.7649L27.1616 54.3039L21.2009 65.6483L49.6357 58.946Z" fill="black"/>
</g>
<g opacity="0.3">
<path opacity="0.3" d="M27.4265 48.4403C27.5314 48.8827 27.7651 49.2841 28.0981 49.5938C28.4311 49.9034 28.8484 50.1074 29.2973 50.1799C29.7462 50.2525 30.2065 50.1903 30.6201 50.0014C31.0337 49.8124 31.382 49.505 31.6209 49.1181C31.8599 48.7313 31.9788 48.2823 31.9627 47.8278C31.9465 47.3734 31.796 46.9339 31.5302 46.565C31.2643 46.1961 30.8951 45.9143 30.4691 45.7551C30.0432 45.596 29.5796 45.5667 29.137 45.6709C28.8427 45.7402 28.565 45.8669 28.3197 46.0436C28.0745 46.2204 27.8664 46.4437 27.7076 46.701C27.5487 46.9582 27.4421 47.2442 27.3939 47.5426C27.3456 47.8411 27.3567 48.1461 27.4265 48.4403Z" fill="black"/>
</g>
<path d="M32.503 38.9566C32.398 38.7738 32.3349 38.5699 32.3182 38.3597C32.3134 38.255 32.3404 38.1512 32.3956 38.062C32.4509 37.9729 32.5319 37.9026 32.6279 37.8603C32.7218 37.8407 32.8188 37.8398 32.9131 37.8578C33.0074 37.8758 33.0971 37.9123 33.1772 37.9652C33.3387 38.0709 33.5263 38.1297 33.7191 38.135C33.8577 38.1006 33.9944 38.0589 34.1287 38.0102C34.2685 37.9802 34.4483 38.0276 34.4832 38.165C34.4911 38.2128 34.4849 38.2618 34.4654 38.3062C34.4459 38.3505 34.4139 38.3882 34.3734 38.4147C34.2935 38.4655 34.2044 38.5003 34.1112 38.5171L32.4306 38.9241" fill="#FFBE9D"/>
<path d="M37.2627 37.1808C37.2627 37.1808 36.8632 38.4619 36.6734 38.4918C36.5155 38.4898 36.362 38.4393 36.2339 38.347C36.2339 38.347 36.3063 39.5406 35.5297 39.6905C35.5297 39.6905 35.3873 40.055 35.1227 40.08C34.858 40.105 34.8105 39.7729 34.8105 39.7729C34.8105 39.7729 34.381 40.2723 34.2237 39.7204C34.0934 39.1244 34.0024 38.5205 33.9515 37.9125C33.9515 37.9125 34.1088 37.3457 34.3485 37.4131C34.4839 37.4402 34.6077 37.5082 34.7031 37.6079C34.8364 37.4228 35.0064 37.2672 35.2026 37.1509C35.2731 37.114 35.3545 37.1033 35.4322 37.1207C35.5099 37.1381 35.5789 37.1824 35.6271 37.2458C35.6271 37.2458 35.9867 36.6914 36.2089 36.8537C36.4312 37.016 36.3238 37.1684 36.3238 37.1684C36.3238 37.1684 36.7907 36.8113 36.9905 36.9037C37.1094 36.9634 37.2051 37.0609 37.2627 37.1808Z" fill="#FFBE9D"/>
<path d="M34.8179 39.763C34.7449 39.4022 34.7081 39.035 34.708 38.6668C34.6726 38.2997 34.6726 37.9301 34.708 37.5631C34.7793 37.9241 34.8153 38.2913 34.8154 38.6593C34.8524 39.0263 34.8532 39.3959 34.8179 39.763Z" fill="#EB996E"/>
<path d="M36.2337 38.3372C36.1835 38.1425 36.1691 37.9403 36.1912 37.7404C36.1773 37.537 36.2151 37.3334 36.3011 37.1486C36.3241 37.3461 36.3241 37.5455 36.3011 37.7429C36.3146 37.9435 36.2918 38.1448 36.2337 38.3372Z" fill="#EB996E"/>
<path d="M35.5195 39.6904C35.4826 39.2751 35.4826 38.8572 35.5195 38.4419C35.5167 38.0293 35.551 37.6172 35.6219 37.2108C35.6589 37.6262 35.6589 38.044 35.6219 38.4594C35.6248 38.872 35.5905 39.284 35.5195 39.6904Z" fill="#EB996E"/>
<path d="M14.5436 58.2767L17.5876 57.0806L21.9551 58.0544C21.8924 58.2074 21.7871 58.3392 21.6516 58.4339C21.5161 58.5287 21.3562 58.5825 21.191 58.5888C20.5767 58.6538 18.966 58.3391 18.966 58.3391L21.5905 59.2381C21.5905 59.2381 21.0911 59.765 20.5018 59.6351C19.9124 59.5053 18.4416 59.2006 18.4416 59.2006L20.2046 60.1221C20.1249 60.2602 20.0033 60.3693 19.8573 60.4336C19.7113 60.4978 19.5487 60.5138 19.393 60.4792C18.7762 60.4142 17.6725 59.9098 17.6725 59.9098C17.6725 59.9098 15.4076 60.9461 14.6984 60.9461C13.9892 60.9461 13.6996 60.9261 13.6996 60.9261L14.5436 58.2767Z" fill="#FFBE9D"/>
<path d="M17.8374 57.1329C17.8174 57.1329 21.0287 56.9706 21.0287 56.9706C21.0546 57.0476 21.0531 57.1312 21.0245 57.2072C20.9958 57.2832 20.9417 57.3469 20.8714 57.3876C20.6217 57.5849 19.6228 57.7048 19.6228 57.7048L17.8374 57.1329Z" fill="#FFBE9D"/>
<path d="M17.7776 57.0706C17.9712 57.1535 18.1729 57.2163 18.3794 57.2579C18.7564 57.3553 19.2783 57.4851 19.8577 57.62C20.437 57.7548 20.9614 57.8697 21.3559 57.9446C21.56 57.9993 21.7692 58.0319 21.9802 58.042C21.7856 57.9594 21.5831 57.8966 21.3759 57.8547C20.9989 57.7548 20.477 57.6275 19.9001 57.4926C19.3233 57.3578 18.7964 57.2429 18.4143 57.168C18.2062 57.1124 17.9927 57.0798 17.7776 57.0706Z" fill="#EB996E"/>
<path d="M17.7701 58.2342C17.7701 58.2716 18.0773 58.2342 18.4393 58.2816C18.8014 58.3291 19.0861 58.4339 19.1011 58.399C18.9094 58.2653 18.688 58.1804 18.456 58.1516C18.2241 58.1229 17.9886 58.1512 17.7701 58.2342Z" fill="#EB996E"/>
<path d="M17.3954 59.2432C17.5619 59.1781 17.7353 59.1328 17.9123 59.1083C18.0903 59.1206 18.2662 59.1533 18.4367 59.2057C18.4492 59.1932 18.4093 59.1358 18.3169 59.0784C18.1927 59.0065 18.0506 58.9719 17.9073 58.9785C17.7643 58.9816 17.6254 59.0268 17.5078 59.1083C17.4204 59.1707 17.3854 59.2307 17.3954 59.2432Z" fill="#EB996E"/>
<path d="M104.603 93.5658C104.259 93.7054 103.947 93.9132 103.686 94.1767C103.424 94.4403 103.219 94.754 103.082 95.0991C102.81 95.7924 102.701 96.5393 102.765 97.2816C102.842 98.7124 103.567 100.196 104.373 101.382C105.622 100.405 106.011 98.5975 106.149 97.6686C106.361 96.2003 105.859 93.4235 104.603 93.5658Z" fill="#5694FF"/>
<path d="M102.842 103.649C102.948 103.248 102.946 102.825 102.835 102.425C102.725 102.024 102.51 101.66 102.213 101.369C101.914 101.086 101.561 100.864 101.175 100.717C100.789 100.571 100.378 100.502 99.9657 100.515C99.7741 100.502 99.5818 100.53 99.4024 100.599C99.223 100.668 99.0607 100.775 98.9269 100.912C98.8243 101.06 98.7633 101.232 98.7501 101.41C98.7369 101.589 98.7721 101.768 98.852 101.929C99.0154 102.249 99.261 102.521 99.5637 102.715C100.563 103.427 101.661 103.931 102.855 103.649" fill="#5694FF"/>
<path d="M104.126 108.099C104.127 108 104.118 107.902 104.101 107.804C104.076 107.597 104.041 107.327 104.001 107.005C103.92 106.118 103.694 105.25 103.332 104.436C102.956 103.62 102.37 102.919 101.634 102.406C101.409 102.256 101.167 102.132 100.915 102.036C100.825 102.001 100.752 101.986 100.705 101.971C100.657 101.956 100.63 101.951 100.63 101.956C100.967 102.089 101.289 102.257 101.591 102.456C102.302 102.977 102.869 103.671 103.239 104.471C103.594 105.277 103.826 106.131 103.929 107.005C103.984 107.342 104.026 107.612 104.061 107.799C104.075 107.901 104.096 108.001 104.126 108.099Z" fill="#263238"/>
<path d="M104.8 95.7182C104.787 95.7594 104.779 95.8023 104.778 95.8456C104.778 95.9405 104.753 96.0603 104.735 96.2102C104.698 96.5273 104.653 96.9893 104.603 97.5561C104.498 98.6948 104.378 100.268 104.286 102.009C104.193 103.749 104.143 105.327 104.123 106.468C104.123 107.04 104.111 107.502 104.111 107.822C104.111 107.972 104.111 108.094 104.111 108.189C104.106 108.231 104.106 108.274 104.111 108.316C104.115 108.274 104.115 108.231 104.111 108.189C104.111 108.094 104.116 107.972 104.126 107.822C104.126 107.49 104.153 107.03 104.173 106.471C104.211 105.33 104.271 103.754 104.363 102.014C104.455 100.273 104.565 98.7023 104.65 97.5636C104.69 97.0043 104.725 96.5448 104.75 96.2152C104.75 96.0628 104.768 95.943 104.773 95.8481C104.786 95.8057 104.795 95.7623 104.8 95.7182Z" fill="#263238"/>
<path d="M104.865 104.636C105.06 103.781 105.457 102.985 106.022 102.315C106.586 101.644 107.303 101.118 108.111 100.78C108.521 100.61 109.053 100.515 109.36 100.832C109.667 101.15 109.567 101.681 109.382 102.081C108.981 102.92 108.339 103.621 107.539 104.096C106.739 104.571 105.816 104.798 104.887 104.748" fill="#5694FF"/>
<path d="M107.832 102.106C107.746 102.132 107.662 102.164 107.582 102.203C107.481 102.242 107.382 102.288 107.287 102.341C107.157 102.402 107.03 102.472 106.908 102.548C106.753 102.642 106.602 102.745 106.458 102.855C106.295 102.971 106.137 103.095 105.986 103.227C105.646 103.538 105.341 103.885 105.077 104.263C104.822 104.648 104.611 105.06 104.448 105.492C104.38 105.681 104.321 105.874 104.273 106.069C104.223 106.251 104.198 106.426 104.171 106.583C104.143 106.741 104.138 106.888 104.126 107.013C104.119 107.122 104.119 107.231 104.126 107.34C104.121 107.433 104.126 107.525 104.141 107.617C104.163 107.617 104.141 107.22 104.251 106.596C104.28 106.427 104.318 106.261 104.366 106.096C104.415 105.904 104.475 105.715 104.545 105.529C104.71 105.108 104.92 104.705 105.172 104.328C105.431 103.956 105.728 103.612 106.059 103.302C106.204 103.167 106.357 103.041 106.516 102.922C106.661 102.805 106.808 102.713 106.938 102.625C107.47 102.281 107.839 102.138 107.832 102.106Z" fill="#263238"/>
</svg>
