<svg width="24" height="24" viewBox="0 0 24 24" fill="none" xmlns="http://www.w3.org/2000/svg">
<path d="M17.417 18.9662H13.0837L8.26281 22.1728C7.54781 22.6495 6.58366 22.1404 6.58366 21.2737V18.9662C3.33366 18.9662 1.16699 16.7995 1.16699 13.5495V7.04948C1.16699 3.79948 3.33366 1.63281 6.58366 1.63281H17.417C20.667 1.63281 22.8337 3.79948 22.8337 7.04948V13.5495C22.8337 16.7995 20.667 18.9662 17.417 18.9662Z" stroke="#3D3D3D" stroke-width="1.5" stroke-miterlimit="10" stroke-linecap="round" stroke-linejoin="round"/>
<path d="M12.0005 11.3066V11.0792C12.0005 10.3425 12.4555 9.9525 12.9105 9.63833C13.3546 9.335 13.7988 8.94501 13.7988 8.23001C13.7988 7.23334 12.9971 6.43164 12.0005 6.43164C11.0038 6.43164 10.2021 7.23334 10.2021 8.23001" stroke="#3D3D3D" stroke-width="1.5" stroke-linecap="round" stroke-linejoin="round"/>
</svg>
