<svg width="30" height="30" viewBox="0 0 30 30" fill="none" xmlns="http://www.w3.org/2000/svg">
<path fill-rule="evenodd" clip-rule="evenodd" d="M15.002 0C19.012 0 22.7805 1.55904 25.611 4.39099C31.4619 10.2419 31.4619 19.7609 25.611 25.6118C22.7428 28.4814 18.8808 30 14.9685 30C12.8358 30 10.6892 29.5492 8.68071 28.6196C8.08891 28.3823 7.53481 28.159 7.13702 28.159C6.67922 28.1618 6.0637 28.374 5.46911 28.5791C4.24924 28.9979 2.73067 29.5199 1.60711 28.4005C0.487723 27.2797 1.00415 25.7653 1.42008 24.5468C1.62525 23.9467 1.83601 23.327 1.83601 22.858C1.83601 22.4728 1.65037 21.9815 1.36564 21.2738C-1.24858 15.6281 -0.0398662 8.82386 4.39439 4.39239C7.22495 1.56044 10.9921 0 15.002 0ZM15.0034 2.09361C11.5517 2.09361 8.30944 3.43631 5.87388 5.87327C2.05793 9.68642 1.0195 15.5415 3.28757 20.4448C3.61418 21.2529 3.92961 22.0401 3.92961 22.858C3.92961 23.6745 3.64907 24.4966 3.40202 25.2224C3.19825 25.8198 2.88979 26.7214 3.08798 26.9196C3.28199 27.1206 4.18922 26.8038 4.78799 26.5986C5.5068 26.3529 6.32191 26.071 7.13004 26.0654C7.93957 26.0654 8.70304 26.3725 9.51117 26.6977C14.4619 28.9867 20.317 27.9455 24.1315 24.1323C29.1646 19.0965 29.1646 10.9049 24.1315 5.87187C21.6946 3.43491 18.4537 2.09361 15.0034 2.09361ZM20.5122 14.1845C21.2827 14.1845 21.908 14.8084 21.908 15.5802C21.908 16.3521 21.2827 16.9759 20.5122 16.9759C19.7418 16.9759 19.1109 16.3521 19.1109 15.5802C19.1109 14.8084 19.7292 14.1845 20.4997 14.1845H20.5122ZM14.917 14.1845C15.6875 14.1845 16.3127 14.8084 16.3127 15.5802C16.3127 16.3521 15.6875 16.9759 14.917 16.9759C14.1466 16.9759 13.5157 16.3521 13.5157 15.5802C13.5157 14.8084 14.1326 14.1845 14.9044 14.1845H14.917ZM9.32121 14.1845C10.0917 14.1845 10.717 14.8084 10.717 15.5802C10.717 16.3521 10.0917 16.9759 9.32121 16.9759C8.55076 16.9759 7.91989 16.3521 7.91989 15.5802C7.91989 14.8084 8.5382 14.1845 9.30865 14.1845H9.32121Z" fill="#5694FF"/>
</svg>
