<svg width="20" height="22" viewBox="0 0 20 22" fill="none" xmlns="http://www.w3.org/2000/svg">
<path fill-rule="evenodd" clip-rule="evenodd" d="M14.2348 0.166992C17.6408 0.166992 19.9287 2.49941 19.9287 5.97041V15.9327C19.9287 19.4341 17.7112 21.7112 14.2792 21.7329L5.94508 21.7362C2.53908 21.7362 0.25 19.4037 0.25 15.9327V5.97041C0.25 2.46799 2.46758 0.191909 5.89958 0.171326L14.2337 0.166992H14.2348ZM14.2348 1.79199L5.905 1.79633C3.383 1.81149 1.875 3.37149 1.875 5.97041V15.9327C1.875 18.549 3.39708 20.1112 5.944 20.1112L14.2738 20.1079C16.7958 20.0927 18.3037 18.5306 18.3037 15.9327V5.97041C18.3037 3.35416 16.7828 1.79199 14.2348 1.79199ZM14.0258 14.7635C14.4743 14.7635 14.8383 15.1275 14.8383 15.576C14.8383 16.0245 14.4743 16.3885 14.0258 16.3885H6.20411C5.75561 16.3885 5.39161 16.0245 5.39161 15.576C5.39161 15.1275 5.75561 14.7635 6.20411 14.7635H14.0258ZM14.0258 10.2281C14.4743 10.2281 14.8383 10.5921 14.8383 11.0406C14.8383 11.4891 14.4743 11.8531 14.0258 11.8531H6.20411C5.75561 11.8531 5.39161 11.4891 5.39161 11.0406C5.39161 10.5921 5.75561 10.2281 6.20411 10.2281H14.0258ZM9.18837 5.70326C9.63687 5.70326 10.0009 6.06726 10.0009 6.51576C10.0009 6.96426 9.63687 7.32826 9.18837 7.32826H6.20378C5.75528 7.32826 5.39128 6.96426 5.39128 6.51576C5.39128 6.06726 5.75528 5.70326 6.20378 5.70326H9.18837Z" fill="#3D3D3D"/>
</svg>
