<svg width="61" height="62" viewBox="0 0 61 62" fill="none" xmlns="http://www.w3.org/2000/svg">
<path fill-rule="evenodd" clip-rule="evenodd" d="M22.1869 0.845215C24.9475 0.848136 27.5775 2.17455 29.2264 4.39207L31.8709 7.93308C32.7099 9.05498 34.0423 9.72404 35.4357 9.72696H43.648C54.859 9.72696 60.0813 15.5089 60.0813 27.9228L60 42.4346C59.9971 54.0276 52.8386 61.2323 41.3141 61.2323H18.7237C7.17597 61.2323 0 54.0247 0 42.4258V19.64C0 7.16761 5.51261 0.845215 16.3811 0.845215H22.1869ZM22.184 5.22765H16.3811C7.95104 5.22765 4.35435 9.53997 4.35435 19.64V42.4258C4.35435 51.7283 9.45765 56.8499 18.7237 56.8499H41.3141C50.5569 56.8499 55.6457 51.7283 55.6457 42.4258V42.417L55.7269 27.9112C55.7269 17.9806 52.3422 14.1094 43.648 14.1094H35.4328C32.6779 14.1065 30.0479 12.783 28.3933 10.5684L25.7429 7.02153C24.9098 5.89671 23.5773 5.23058 22.184 5.22765ZM42.7196 36.5264C43.9214 36.5264 44.8968 37.5081 44.8968 38.7177C44.8968 39.9272 43.9214 40.9089 42.7196 40.9089H17.3628C16.161 40.9089 15.1856 39.9272 15.1856 38.7177C15.1856 37.5081 16.161 36.5264 17.3628 36.5264H42.7196Z" fill="#5694FF"/>
</svg>
