<svg width="24" height="23" viewBox="0 0 24 23" fill="none" xmlns="http://www.w3.org/2000/svg">
<path fill-rule="evenodd" clip-rule="evenodd" d="M9.11966 14.363C13.0344 14.363 18.2393 14.8038 18.2393 18.6177C18.2393 22.6352 12.1745 22.8762 9.573 22.8907L8.62848 22.8907C5.85467 22.8763 0 22.6366 0 18.6417C0 14.6197 6.06482 14.3784 8.66631 14.3639L8.97886 14.363C9.02758 14.363 9.07454 14.363 9.11966 14.363ZM9.11966 16.1648C5.78147 16.1648 1.80183 16.5936 1.80183 18.6417C1.80183 20.2658 4.26433 21.0898 9.11966 21.0898C13.975 21.0898 16.4375 20.2574 16.4375 18.6177C16.4375 16.99 13.975 16.1648 9.11966 16.1648ZM20.0684 13.8019C23.3189 14.2884 24 15.7935 24 16.9695C24 17.8452 23.6216 19.0308 21.8162 19.7143C21.7117 19.7539 21.6036 19.7731 21.4967 19.7731C21.1327 19.7731 20.7903 19.5509 20.6546 19.1918C20.478 18.7269 20.7123 18.2056 21.1771 18.0302C22.1982 17.6434 22.1982 17.1713 22.1982 16.9695C22.1982 16.2884 21.3922 15.8223 19.8029 15.5857C19.3104 15.5112 18.9705 15.0524 19.0438 14.5611C19.1182 14.0686 19.5855 13.7382 20.0684 13.8019ZM9.11966 0C12.5203 0 15.288 2.76761 15.288 6.16826C15.2951 7.80672 14.6597 9.35389 13.5017 10.5191C12.3461 11.6855 10.8026 12.3305 9.1605 12.3365H9.11966C5.7178 12.3365 2.95019 9.56891 2.95019 6.16826C2.95019 2.76761 5.7178 0 9.11966 0ZM17.6334 1.34993C19.9938 1.73672 21.7068 3.75597 21.7068 6.15C21.7019 8.55845 19.9037 10.6269 17.5229 10.9609C17.4809 10.9669 17.4388 10.9693 17.3968 10.9693C16.9547 10.9693 16.5691 10.6438 16.5055 10.1933C16.437 9.70081 16.7794 9.24434 17.2719 9.17587C18.771 8.96566 19.9025 7.66474 19.9049 6.1488C19.9049 4.64247 18.8262 3.37158 17.3427 3.12894C16.8514 3.04725 16.5187 2.58478 16.5992 2.09348C16.6796 1.60219 17.1445 1.27185 17.6334 1.34993ZM9.11966 1.80183C6.71121 1.80183 4.75202 3.76102 4.75202 6.16826C4.75202 8.5755 6.71121 10.5347 9.11966 10.5347H9.15689C10.3149 10.5299 11.4056 10.0746 12.2236 9.24939C13.0428 8.42655 13.4909 7.33224 13.4861 6.17186C13.4861 3.76102 11.5269 1.80183 9.11966 1.80183Z" fill="#3D3D3D"/>
</svg>
