<svg width="22" height="22" viewBox="0 0 22 22" fill="none" xmlns="http://www.w3.org/2000/svg">
<path fill-rule="evenodd" clip-rule="evenodd" d="M10.9998 0.166016C16.9733 0.166016 21.8332 5.02585 21.8332 10.9993C21.8332 16.9728 16.9733 21.8327 10.9998 21.8327C5.02634 21.8327 0.166504 16.9728 0.166504 10.9993C0.166504 5.02585 5.02634 0.166016 10.9998 0.166016ZM10.9998 1.79102C5.92225 1.79102 1.7915 5.92177 1.7915 10.9993C1.7915 16.0769 5.92225 20.2077 10.9998 20.2077C16.0774 20.2077 20.2082 16.0769 20.2082 10.9993C20.2082 5.92177 16.0774 1.79102 10.9998 1.79102ZM10.6328 5.68603C11.0824 5.68603 11.4453 6.05003 11.4453 6.49853V11.289L15.1341 13.4882C15.5186 13.719 15.6454 14.2173 15.4157 14.6029C15.263 14.8575 14.9932 14.9994 14.717 14.9994C14.5751 14.9994 14.4321 14.9626 14.301 14.8857L10.2168 12.4493C9.97197 12.3019 9.8203 12.0365 9.8203 11.7505V6.49853C9.8203 6.05003 10.1843 5.68603 10.6328 5.68603Z" fill="#3D3D3D"/>
</svg>
