<svg width="24" height="18" viewBox="0 0 24 25" fill="red" xmlns="http://www.w3.org/2000/svg">
<path fill-rule="evenodd" clip-rule="evenodd" d="M23.0769 21.4635C23.5865 21.4635 24 21.8771 24 22.3866C24 22.8961 23.5865 23.3096 23.0769 23.3096H14.1504C13.6409 23.3096 13.2273 22.8961 13.2273 22.3866C13.2273 21.8771 13.6409 21.4635 14.1504 21.4635H23.0769ZM17.3735 0.804464C17.435 0.852462 19.494 2.45242 19.494 2.45242C20.2423 2.89795 20.8269 3.69424 21.0484 4.63699C21.2687 5.56989 21.1087 6.53232 20.5955 7.34584C20.5921 7.35127 20.5887 7.35663 20.5768 7.37258L20.5675 7.3849C20.4842 7.49469 20.1221 7.95259 18.2944 10.2425C18.2774 10.2725 18.2582 10.3006 18.2372 10.3279C18.2064 10.3682 18.1728 10.4052 18.137 10.4389C18.0123 10.5958 17.8807 10.7608 17.7422 10.9342L17.4617 11.2855C16.8829 12.0104 16.1964 12.8699 15.3819 13.8895L14.9638 14.4127C13.3914 16.3808 11.3775 18.9008 8.79766 22.1283C8.23275 22.8322 7.386 23.2421 6.47649 23.2531L1.99783 23.3098H1.98552C1.55845 23.3098 1.18677 23.0168 1.08708 22.5996L0.0791049 18.3277C-0.12889 17.4428 0.0778742 16.5296 0.645245 15.8207L12.2388 1.32014C12.2437 1.31522 12.2474 1.30907 12.2523 1.30414C13.5237 -0.215819 15.8227 -0.439814 17.3735 0.804464ZM10.9462 5.89155L2.08644 16.9739C1.87598 17.2373 1.79845 17.577 1.87598 17.9031L2.71412 21.4538L6.45433 21.407C6.81002 21.4033 7.13863 21.2446 7.35647 20.9738C8.47826 19.5703 9.88817 17.8062 11.3377 15.9922L11.8506 15.3505L12.3643 14.7076C13.7238 13.0063 15.0668 11.3253 16.1905 9.91836L10.9462 5.89155ZM13.6739 2.48196L12.0994 4.44912L17.3433 8.47478C18.3526 7.21053 19.0166 6.37786 19.078 6.29848C19.2799 5.97111 19.3586 5.50835 19.2528 5.06282C19.1445 4.60622 18.8602 4.21853 18.4503 3.97116C18.363 3.91085 16.2892 2.30104 16.2252 2.25058C15.4449 1.62537 14.3065 1.73367 13.6739 2.48196Z" fill="#3D3D3D"/>
</svg>
