<svg width="21" height="22" viewBox="0 0 21 22" fill="none" xmlns="http://www.w3.org/2000/svg">
<path fill-rule="evenodd" clip-rule="evenodd" d="M18 7.44667C18.4474 7.4835 18.7811 7.87458 18.7453 8.322C18.7388 8.39567 18.1516 15.6659 17.8137 18.7155C17.6035 20.6081 16.3533 21.7597 14.4661 21.7943C13.0221 21.8193 11.6289 21.8333 10.2671 21.8333C8.79923 21.8333 7.36815 21.8171 5.95223 21.7878C4.1409 21.7521 2.88748 20.5777 2.68273 18.7231C2.34148 15.6464 1.75757 8.39458 1.75215 8.322C1.71532 7.87458 2.04898 7.48242 2.4964 7.44667C2.93732 7.43475 3.33598 7.74458 3.37173 8.19092C3.37519 8.23794 3.6139 11.1994 3.87403 14.1294L3.92628 14.7142C4.0573 16.1706 4.19011 17.57 4.29798 18.5443C4.4139 19.5984 4.98265 20.1423 5.98582 20.1628C8.69415 20.2202 11.4577 20.2235 14.4369 20.1693C15.5029 20.1488 16.0792 19.6158 16.1984 18.5368C16.5342 15.5099 17.1192 8.26458 17.1257 8.19092C17.1615 7.74458 17.5569 7.43258 18 7.44667ZM12.5408 0.166992C13.5353 0.166992 14.4096 0.837575 14.6663 1.79849L14.9415 3.16458C15.0304 3.6124 15.4234 3.93944 15.8785 3.94662L19.4337 3.94674C19.8822 3.94674 20.2462 4.31074 20.2462 4.75924C20.2462 5.20774 19.8822 5.57174 19.4337 5.57174L15.9102 5.57158C15.9047 5.57169 15.8993 5.57174 15.8938 5.57174L15.8673 5.57066L4.62842 5.57161C4.61968 5.5717 4.61094 5.57174 4.60218 5.57174L4.5855 5.57066L1.0625 5.57174C0.614 5.57174 0.25 5.20774 0.25 4.75924C0.25 4.31074 0.614 3.94674 1.0625 3.94674L4.61692 3.94566L4.72636 3.93873C5.134 3.88584 5.47279 3.57624 5.55552 3.16458L5.81877 1.84724C6.08635 0.837575 6.9606 0.166992 7.9551 0.166992H12.5408ZM12.5408 1.79199H7.9551C7.6951 1.79199 7.46652 1.96641 7.40043 2.21666L7.14802 3.48416C7.11594 3.6447 7.06922 3.79942 7.00944 3.94703H13.4868C13.427 3.79942 13.3802 3.6447 13.3479 3.48416L13.0847 2.16683C13.0294 1.96641 12.8008 1.79199 12.5408 1.79199Z" fill="#3D3D3D"/>
</svg>
