<svg width="24" height="24" viewBox="0 0 24 24" fill="none" xmlns="http://www.w3.org/2000/svg">
<path d="M2.78712 4.32271L2.90206 4.43678L3.00701 4.31345C5.11347 1.83825 8.20665 0.245665 11.6949 0.153477C18.1179 -0.0044029 23.6611 5.23659 23.8454 11.6594C24.0296 18.3605 18.6587 23.85 11.9977 23.85C6.46919 23.85 1.83525 20.0589 0.53197 14.9377L0.531845 14.9372C0.344265 14.2103 0.919668 13.4849 1.69301 13.4849C2.21257 13.4849 2.68586 13.8401 2.82796 14.3339C4.00709 18.9647 8.58442 22.2422 13.7301 21.3215C17.4833 20.6575 20.5579 17.6645 21.2898 13.9103C22.4814 7.85674 17.8491 2.5198 11.9977 2.5198C9.04341 2.5198 6.41586 3.90231 4.66985 6.0274L4.58377 6.13216L4.67934 6.22835L6.7456 8.30804L6.74558 8.30806L6.74764 8.31005C7.07575 8.62792 6.85286 9.18549 6.38543 9.18549H0.666548C0.376137 9.18549 0.150012 8.95936 0.150012 8.66892L0.150014 2.94976L0.150009 2.94888C0.14941 2.84689 0.179012 2.74701 0.235084 2.66182C0.291156 2.57663 0.371188 2.50995 0.465093 2.47018C0.558998 2.4304 0.662574 2.41932 0.762768 2.43832C0.862814 2.45729 0.955018 2.50541 1.0278 2.57663C1.0279 2.57673 1.02801 2.57684 1.02812 2.57695L2.78712 4.32271ZM11.9977 9.48549C13.3812 9.48549 14.5138 10.6181 14.5138 12.0018C14.5138 13.3854 13.3812 14.518 11.9977 14.518C10.6141 14.518 9.48153 13.3854 9.48153 12.0018C9.48153 10.6181 10.6141 9.48549 11.9977 9.48549Z" fill="#3D3D3D" stroke="white" stroke-width="0.3"/>
</svg>
