<svg width="24" height="27" viewBox="0 0 24 27" fill="none" xmlns="http://www.w3.org/2000/svg">
<path fill-rule="evenodd" clip-rule="evenodd" d="M21.3041 8.73729C21.8411 8.78149 22.2415 9.25088 22.1986 9.78789C22.1908 9.8763 21.4861 18.6023 21.0804 22.2625C20.8282 24.534 19.3277 25.9162 17.0627 25.9578C15.3294 25.9877 13.6573 26.0046 12.0229 26.0046C10.261 26.0046 8.54342 25.9851 6.84399 25.95C4.66997 25.9071 3.16559 24.4976 2.91984 22.2716C2.51026 18.5789 1.80943 9.875 1.80293 9.78789C1.75872 9.25088 2.15919 8.78019 2.6962 8.73729C3.2254 8.72298 3.70389 9.09485 3.7468 9.63056C3.75095 9.68699 4.03746 13.2414 4.34967 16.7581L4.41238 17.46C4.56964 19.208 4.72904 20.8876 4.85851 22.057C4.99764 23.3222 5.68027 23.9749 6.8843 23.9996C10.1349 24.0685 13.4519 24.0724 17.0275 24.0074C18.307 23.9827 18.9987 23.343 19.1417 22.0479C19.5448 18.415 20.247 9.71897 20.2548 9.63056C20.2977 9.09485 20.7723 8.72038 21.3041 8.73729ZM14.7518 0C15.9455 0 16.9948 0.804854 17.3029 1.95818L17.6332 3.59779C17.7399 4.13528 18.2116 4.5278 18.7578 4.53643L23.0248 4.53657C23.5631 4.53657 24 4.97345 24 5.51176C24 6.05006 23.5631 6.48694 23.0248 6.48694L18.7959 6.48675C18.7893 6.48688 18.7827 6.48694 18.7761 6.48694L18.7444 6.48564L5.25511 6.48678C5.24463 6.48689 5.23413 6.48694 5.22362 6.48694L5.2036 6.48564L0.975187 6.48694C0.436884 6.48694 0 6.05006 0 5.51176C0 4.97345 0.436884 4.53657 0.975187 4.53657L5.2413 4.53527L5.37266 4.52696C5.86193 4.46348 6.26855 4.09188 6.36784 3.59779L6.6838 2.01669C7.00496 0.804854 8.05426 0 9.24789 0H14.7518ZM14.7518 1.95037H9.24789C8.93583 1.95037 8.66148 2.15971 8.58216 2.46007L8.27921 3.98136C8.2407 4.17406 8.18464 4.35975 8.11288 4.53692H15.8872C15.8154 4.35975 15.7592 4.17406 15.7205 3.98136L15.4046 2.40026C15.3383 2.15971 15.0639 1.95037 14.7518 1.95037Z" fill="#3D3D3D"/>
</svg>
