<svg width="30" height="35" viewBox="0 0 47 50" fill="none" xmlns="http://www.w3.org/2000/svg">
<path fill-rule="evenodd" clip-rule="evenodd" d="M40.9621 16.7995C41.9946 16.8845 42.7646 17.787 42.6821 18.8195C42.6671 18.9895 41.3121 35.7673 40.5321 42.8049C40.0471 47.1725 37.1621 49.83 32.807 49.91C29.4744 49.9675 26.2594 50 23.1168 50C19.7293 50 16.4267 49.9625 13.1592 49.895C8.97913 49.8125 6.08659 47.1025 5.61408 42.8224C4.82657 35.7223 3.47905 18.987 3.46655 18.8195C3.38155 17.787 4.15156 16.882 5.18408 16.7995C6.20159 16.772 7.12161 17.487 7.20411 18.517C7.21209 18.6255 7.76297 25.4597 8.36328 32.2215L8.48386 33.5709C8.78621 36.9319 9.0927 40.1614 9.34164 42.4099C9.60914 44.8424 10.9217 46.0974 13.2367 46.1449C19.4868 46.2774 25.8644 46.2849 32.7395 46.1599C35.1995 46.1124 36.5295 44.8824 36.8046 42.3924C37.5796 35.4073 38.9296 18.687 38.9446 18.517C39.0271 17.487 39.9396 16.767 40.9621 16.7995ZM28.3639 0C30.659 0 32.6765 1.54752 33.269 3.76506L33.904 6.9176C34.1092 7.95105 35.0161 8.70577 36.0662 8.72235L44.2707 8.72263C45.3057 8.72263 46.1457 9.56264 46.1457 10.5977C46.1457 11.6327 45.3057 12.4727 44.2707 12.4727L36.1395 12.4723C36.1269 12.4726 36.1142 12.4727 36.1015 12.4727L36.0405 12.4702L10.1042 12.4724C10.084 12.4726 10.0639 12.4727 10.0436 12.4727L10.0051 12.4702L1.87503 12.4727C0.840013 12.4727 0 11.6327 0 10.5977C0 9.56264 0.840013 8.72263 1.87503 8.72263L10.0777 8.72013L10.3302 8.70414C11.2709 8.58209 12.0528 7.86762 12.2437 6.9176L12.8512 3.87756C13.4687 1.54752 15.4862 0 17.7813 0H28.3639ZM28.3639 3.75006H17.7813C17.1813 3.75006 16.6537 4.15256 16.5012 4.73007L15.9187 7.65511C15.8447 8.02561 15.7369 8.38266 15.5989 8.7233H30.547C30.4089 8.38266 30.3008 8.02561 30.2265 7.65511L29.6189 4.61507C29.4914 4.15256 28.9639 3.75006 28.3639 3.75006Z" fill="#5694FF"/>
</svg>
