<svg width="60" height="63" viewBox="0 0 60 63" fill="none" xmlns="http://www.w3.org/2000/svg">
<path fill-rule="evenodd" clip-rule="evenodd" d="M0 34.1346C0 26.7493 5.97 20.7408 13.308 20.7408H16.104C17.346 20.7408 18.354 21.7553 18.354 23.0053C18.354 24.2553 17.346 25.2698 16.104 25.2698H13.308C8.448 25.2698 4.5 29.2463 4.5 34.1346L4.5 48.854C4.5 53.7363 8.448 57.7097 13.308 57.7097H46.695C51.552 57.7097 55.5 53.7363 55.5 48.854V34.1014C55.5 29.2342 51.564 25.2698 46.728 25.2698H43.899C42.657 25.2698 41.649 24.2553 41.649 23.0053C41.649 21.7553 42.657 20.7408 43.899 20.7408H46.728C54.048 20.7408 60 26.7372 60 34.1014V48.854C60 56.2333 54.033 62.2388 46.695 62.2388H13.308C5.97 62.2388 0 56.2333 0 48.854L0 34.1346ZM19.662 9.73793L28.407 0.897251C28.4848 0.818386 28.5656 0.747761 28.6512 0.683128L28.407 0.897251C28.5118 0.790276 28.6263 0.695145 28.7484 0.612602C28.8037 0.576271 28.8609 0.541229 28.9198 0.508751C28.9657 0.482399 29.0136 0.458145 29.0624 0.435661C29.1055 0.416599 29.1486 0.3983 29.1923 0.38134C29.2493 0.358574 29.3079 0.338642 29.3673 0.321159C29.4141 0.307987 29.4608 0.295876 29.508 0.285259C29.5653 0.27177 29.623 0.26115 29.681 0.252796C29.7188 0.248066 29.7584 0.243443 29.7983 0.239872C29.8667 0.23296 29.9332 0.229977 30 0.229977L30.186 0.245373L30.3052 0.251568C30.3103 0.252266 30.3154 0.252975 30.3204 0.253704L30 0.229977C30.1665 0.229977 30.3314 0.248535 30.4918 0.284607C30.5392 0.295872 30.5859 0.307983 30.632 0.321541C30.6921 0.338642 30.7507 0.358578 30.8084 0.380905C30.8514 0.3983 30.8945 0.416599 30.9369 0.436184C30.9864 0.458145 31.0343 0.482399 31.0814 0.508385C31.1391 0.541229 31.1963 0.576271 31.2517 0.613731C31.2846 0.634926 31.3171 0.658176 31.349 0.682327C31.4429 0.754215 31.5313 0.832554 31.6132 0.917316L40.341 9.73793C40.779 10.1788 40.998 10.7585 40.998 11.3352C40.998 11.9149 40.779 12.4976 40.335 12.9384C39.453 13.8201 38.031 13.8171 37.155 12.9324L32.25 7.98096V38.8514C32.25 40.1015 31.242 41.116 30 41.116C28.758 41.116 27.75 40.1015 27.75 38.8514L27.75 7.97493L22.848 12.9324C21.972 13.8171 20.55 13.8231 19.668 12.9384C18.786 12.0568 18.786 10.6256 19.662 9.73793Z" fill="#5694FF"/>
</svg>
